<?xml version="1.0" standalone="no"?>
<!DOCTYPE svg PUBLIC "-//W3C//DTD SVG 20010904//EN"
 "http://www.w3.org/TR/2001/REC-SVG-20010904/DTD/svg10.dtd">
<svg version="1.0" xmlns="http://www.w3.org/2000/svg"
 width="1000.000000pt" height="1500.000000pt" viewBox="0 0 1000.000000 1500.000000"
 preserveAspectRatio="xMidYMid meet">

<g transform="translate(0.000000,1500.000000) scale(0.100000,-0.100000)"
fill="#000000" stroke="none">
<path d="M0 13283 l1 -1718 82 85 c46 47 104 117 130 156 46 71 107 184 107
199 0 5 6 16 14 24 7 9 30 48 50 86 21 39 58 97 82 130 25 33 75 105 111 160
36 55 71 103 77 107 6 4 8 8 4 8 -4 0 21 39 57 88 36 48 65 93 65 100 0 6 4
12 9 12 5 0 13 13 19 28 5 16 16 35 24 43 8 8 31 43 52 79 20 36 45 76 55 90
37 51 121 180 121 186 0 4 14 20 30 36 17 15 30 31 30 35 0 3 11 21 25 39 14
18 25 36 25 41 0 4 11 21 25 37 14 16 25 34 25 41 0 7 9 20 20 30 12 11 31 36
42 57 12 21 25 38 30 38 4 0 8 6 8 13 0 7 38 54 85 103 47 49 85 92 85 97 0 4
7 7 15 7 8 0 15 5 15 11 0 10 90 110 125 140 64 54 84 69 94 69 6 0 11 4 11 8
0 7 188 101 245 122 80 30 105 39 145 49 25 7 57 15 73 18 15 3 27 9 27 13 0
4 15 10 33 14 17 3 54 10 80 16 27 5 98 12 159 14 60 3 156 10 212 17 192 22
1102 -16 1191 -51 44 -17 114 -15 145 5 30 19 62 35 73 35 5 0 36 12 68 28 38
17 59 33 59 44 0 10 10 20 23 22 12 3 48 10 80 16 32 7 78 20 102 31 54 24
320 97 395 109 30 4 84 15 120 23 36 9 84 15 107 16 24 0 48 3 55 7 11 7 49 9
278 12 36 1 151 -5 255 -12 105 -7 235 -11 290 -9 85 3 102 6 117 23 18 23 48
27 48 7 0 -10 15 -13 60 -11 44 1 60 -1 60 -11 0 -7 15 -16 33 -19 17 -4 44
-9 59 -12 18 -4 32 0 47 15 28 28 51 26 76 -5 18 -23 30 -26 105 -31 47 -3 94
-12 105 -19 24 -15 147 -29 233 -26 48 2 64 -1 68 -13 4 -8 12 -15 19 -15 8 0
27 -11 43 -25 26 -22 32 -23 56 -12 14 7 26 15 26 20 0 4 7 7 15 7 9 0 18 -12
21 -30 4 -16 7 -30 8 -31 0 0 23 -3 49 -5 28 -3 64 -16 84 -30 27 -18 49 -24
92 -24 32 0 62 5 68 11 19 19 50 0 68 -44 36 -86 50 -107 92 -136 53 -38 81
-81 88 -141 4 -25 18 -67 32 -94 45 -85 17 -169 -76 -226 -22 -14 -41 -31 -41
-38 0 -8 -7 -11 -18 -8 -11 4 -36 -1 -56 -9 l-38 -16 64 -72 c125 -142 247
-304 313 -415 6 -9 29 -47 52 -84 23 -37 61 -102 84 -145 24 -43 54 -93 68
-112 14 -18 26 -41 28 -50 3 -22 81 -170 102 -195 9 -10 46 -39 84 -63 46 -30
73 -56 87 -83 19 -38 19 -38 0 -63 -26 -32 -25 -51 4 -114 22 -46 23 -58 16
-118 -5 -37 -11 -69 -13 -72 -3 -2 -14 0 -25 6 -12 6 -23 11 -26 11 -9 0 -7
-51 4 -90 17 -63 49 -302 61 -464 14 -185 7 -474 -16 -653 -17 -135 -57 -348
-78 -415 -8 -24 -20 -63 -27 -88 -7 -25 -16 -54 -20 -65 -5 -11 -15 -40 -23
-65 -31 -94 -97 -264 -143 -365 -12 -27 -25 -61 -29 -73 -4 -13 -26 -65 -50
-115 -23 -51 -46 -117 -50 -147 -5 -33 -17 -67 -31 -86 -13 -17 -24 -35 -24
-40 0 -5 -10 -33 -21 -64 -12 -30 -25 -64 -29 -75 -4 -11 -15 -38 -24 -60 -10
-21 -25 -60 -33 -85 -8 -25 -31 -78 -49 -118 -19 -41 -34 -76 -34 -79 0 -4
-15 -38 -34 -77 -58 -121 -142 -298 -176 -371 -18 -38 -43 -85 -57 -102 l-24
-33 41 -44 c26 -28 40 -52 38 -63 -6 -23 19 -73 35 -73 16 0 77 -53 77 -67 0
-18 64 -63 90 -63 23 0 23 0 4 22 l-19 22 30 -19 c17 -10 38 -29 47 -41 10
-12 38 -27 62 -33 56 -14 63 -14 49 0 -12 12 -7 39 7 39 4 0 20 -12 36 -27 29
-27 31 -27 174 -29 133 -1 150 1 208 23 56 23 62 28 62 54 0 43 70 105 146
128 33 11 85 31 114 45 30 14 67 26 82 26 34 0 76 20 102 49 10 11 38 30 61
41 58 28 77 52 81 102 8 120 6 598 -3 610 -5 7 -7 24 -3 38 4 15 1 36 -7 53
-15 30 -16 144 0 154 5 3 4 9 -3 13 -8 5 -9 13 -4 21 5 8 9 20 11 28 3 21 65
141 72 141 4 0 8 10 8 22 1 13 7 24 13 26 5 2 10 10 10 18 0 8 7 17 15 20 8 4
15 15 15 25 0 10 7 19 15 19 18 0 20 16 4 26 -7 4 -8 9 -1 13 10 6 76 138 77
153 0 3 4 10 8 15 5 4 15 22 23 38 8 17 22 42 31 56 10 15 36 57 57 95 42 73
102 169 123 194 68 83 157 238 178 310 4 14 16 42 27 63 26 52 39 201 20 228
-8 11 -11 26 -9 33 3 8 3 17 -1 21 -4 4 -12 34 -18 68 -6 34 -19 103 -28 152
-9 50 -19 115 -22 145 -8 78 -28 146 -63 215 -17 33 -31 68 -31 78 0 9 -4 17
-9 17 -16 0 -44 94 -42 143 1 33 -5 59 -18 80 -10 18 -22 48 -26 67 -3 19 -17
69 -30 110 -13 41 -26 92 -28 113 -5 31 -3 37 13 37 24 0 31 22 11 37 -13 9
-14 14 -3 24 9 10 12 10 12 1 0 -7 7 -12 16 -12 8 0 22 -6 30 -14 7 -8 33 -17
56 -21 24 -4 63 -16 88 -27 25 -11 68 -27 95 -35 61 -18 212 -100 245 -133 9
-9 84 -66 98 -74 9 -6 12 323 12 1628 l0 1636 -809 0 -810 0 -131 -62 c-112
-53 -130 -65 -126 -82 8 -31 -31 -109 -67 -133 -17 -11 -54 -29 -82 -38 -63
-21 -75 -31 -75 -64 0 -29 -47 -117 -76 -142 -43 -37 -114 -40 -212 -10 -41
13 -86 21 -101 18 -15 -3 -33 -1 -41 4 -13 8 -13 10 0 20 12 8 11 9 -6 4 -12
-3 -32 -1 -45 4 -21 8 -19 9 24 16 59 9 67 20 25 35 -18 6 -51 29 -73 50 -22
22 -48 43 -57 46 -10 3 -18 12 -18 20 0 8 -9 14 -20 14 -11 0 -20 7 -20 15 0
12 -22 21 -32 13 -2 -1 -16 5 -33 14 -26 14 -87 31 -120 32 -12 1 -41 29 -48
47 -4 11 -6 11 -6 1 -1 -7 -5 -11 -11 -7 -5 3 -6 13 -3 22 5 13 2 15 -17 10
-15 -4 -27 -1 -34 8 -6 8 -21 16 -33 18 -66 10 -17 36 80 43 81 6 118 20 110
40 -3 8 -10 14 -15 14 -6 0 -16 8 -23 17 -9 12 -17 14 -26 7 -8 -6 -25 -8 -39
-5 -14 2 -189 6 -390 8 -345 3 -416 -2 -385 -24 6 -5 12 -21 13 -37 2 -15 15
-49 28 -74 13 -25 24 -52 24 -61 0 -10 5 -22 12 -29 7 -7 9 -12 5 -12 -4 0 1
-17 11 -37 10 -21 25 -60 32 -86 11 -41 11 -50 -2 -63 -12 -12 -23 -13 -64 -4
-27 6 -80 15 -119 20 -38 5 -99 14 -135 19 -36 6 -141 11 -235 12 -152 1 -175
-1 -215 -19 -52 -24 -104 -33 -215 -37 -44 -2 -109 -8 -144 -14 -35 -5 -93 -7
-128 -4 -55 5 -66 3 -86 -15 -23 -22 -45 -26 -114 -24 -27 1 -43 7 -43 15 0
17 -65 51 -83 44 -21 -8 -29 30 -11 47 8 8 14 19 14 24 0 18 33 37 59 34 18
-2 22 0 12 6 -10 7 -10 11 -1 17 6 4 9 14 6 22 -3 8 -1 11 4 8 6 -3 10 3 10
13 0 11 7 25 15 32 8 7 15 18 15 25 0 7 7 15 15 19 8 3 15 12 15 20 0 8 11 26
25 40 14 14 25 28 25 31 0 3 11 23 25 43 14 20 25 40 25 44 0 5 -1136 8 -2525
8 l-2525 0 0 -1717z m5507 1240 c-8 -7 -37 9 -31 19 3 5 12 4 20 -3 8 -6 13
-14 11 -16z m1873 7 c0 -5 -7 -10 -15 -10 -8 0 -15 5 -15 10 0 6 7 10 15 10 8
0 15 -4 15 -10z"/>
<path d="M7173 14978 c26 -40 224 -98 403 -117 39 -5 76 -11 82 -15 14 -8 43
4 36 15 -3 5 -23 9 -45 9 -21 0 -39 5 -39 11 0 5 -4 8 -8 5 -10 -6 -112 23
-130 37 -7 5 -29 13 -50 18 -94 20 -137 32 -142 39 -3 4 -30 9 -61 12 -53 4
-56 3 -46 -14z"/>
<path d="M7775 14850 c-3 -5 -1 -10 4 -10 6 0 11 5 11 10 0 6 -2 10 -4 10 -3
0 -8 -4 -11 -10z"/>
<path d="M7928 14843 c7 -3 16 -2 19 1 4 3 -2 6 -13 5 -11 0 -14 -3 -6 -6z"/>
<path d="M7528 14563 c6 -2 18 -2 25 0 6 3 1 5 -13 5 -14 0 -19 -2 -12 -5z"/>
<path d="M4745 13826 c-5 -3 -49 -8 -97 -11 -49 -4 -88 -10 -88 -14 0 -4 37
-3 83 1 69 7 173 5 354 -5 17 -1 35 -6 39 -10 4 -4 18 -7 31 -7 13 0 23 -4 23
-9 0 -5 21 -9 48 -9 69 0 82 -2 82 -13 0 -5 18 -9 39 -9 22 0 43 -5 46 -11 4
-6 14 -8 23 -4 9 3 27 -5 44 -22 15 -15 28 -24 28 -20 0 3 16 -5 36 -18 35
-24 75 -28 102 -11 6 4 21 -2 33 -13 l21 -20 -21 6 c-32 8 -25 -11 8 -23 21
-9 36 -8 59 2 19 8 34 9 37 3 4 -5 1 -9 -4 -9 -19 0 -12 -29 11 -41 17 -9 24
-9 33 5 11 14 15 12 29 -19 10 -20 22 -33 27 -29 5 3 17 0 25 -7 12 -10 15
-10 12 1 -2 7 3 15 11 17 9 4 11 0 6 -16 -6 -21 2 -26 34 -22 7 2 11 -4 9 -11
-5 -13 14 -38 27 -38 4 0 5 11 3 24 -6 29 21 45 34 21 5 -8 20 -27 34 -42 13
-14 24 -30 24 -35 0 -5 4 -6 10 -3 6 3 7 -1 4 -10 -5 -13 -9 -12 -25 6 -11 12
-19 25 -19 29 0 4 -9 10 -20 13 -11 3 -18 2 -15 -2 2 -4 -14 -15 -35 -25 -22
-10 -40 -20 -40 -24 0 -4 25 -7 55 -7 41 0 52 -3 41 -10 -12 -9 -12 -16 0 -50
7 -22 14 -41 14 -43 0 -2 4 -1 9 2 5 4 7 -3 4 -14 -4 -14 0 -20 11 -20 19 0
21 -11 5 -27 -8 -8 -8 -13 1 -18 7 -4 16 5 23 24 6 17 17 31 25 31 9 0 10 -5
3 -19 -8 -14 -6 -24 9 -41 11 -13 20 -27 20 -31 0 -5 10 -8 22 -6 12 1 23 -4
24 -10 1 -7 2 -18 3 -24 2 -20 31 11 31 33 0 41 59 -5 84 -65 3 -9 7 -8 15 3
10 13 12 13 21 0 8 -12 10 -11 10 8 0 16 -6 22 -21 22 -12 0 -28 8 -35 18 -18
23 -17 35 1 28 9 -3 20 3 27 14 7 11 16 20 20 20 5 0 3 -9 -4 -19 -16 -27 10
-51 56 -51 20 0 36 -4 36 -9 0 -14 -34 -23 -55 -15 -13 5 -16 2 -13 -12 2 -13
10 -18 26 -16 13 2 22 -2 22 -10 0 -7 15 -26 34 -41 21 -18 32 -36 31 -50 -1
-12 0 -14 2 -4 7 26 23 21 23 -8 0 -20 -5 -25 -24 -25 -30 0 -43 -17 -26 -33
10 -9 14 -9 17 1 7 17 30 15 37 -4 3 -8 10 -13 15 -10 16 10 42 -6 36 -21 -4
-12 0 -14 15 -10 13 3 20 0 20 -9 0 -8 -6 -11 -15 -8 -8 4 -15 1 -15 -5 0 -6
7 -11 15 -11 8 0 17 -11 21 -25 3 -13 12 -30 20 -36 12 -10 13 -8 8 7 -4 10
-11 24 -16 31 -6 7 -6 19 1 30 10 17 10 17 11 1 0 -10 4 -18 10 -18 5 0 8 -25
6 -56 -2 -33 0 -50 5 -42 6 8 9 -4 9 -32 1 -41 2 -43 11 -20 6 14 8 48 5 75
-5 46 -4 51 14 52 15 1 20 -5 21 -25 0 -22 2 -23 8 -9 4 10 10 18 14 18 4 -1
9 -1 12 -1 3 0 -3 9 -12 20 -10 11 -25 20 -35 20 -12 0 -15 5 -11 17 4 11 3
14 -5 9 -7 -4 -12 -2 -12 3 0 28 17 14 145 -121 104 -109 165 -182 190 -227
11 -20 28 -42 37 -49 33 -25 48 -44 42 -54 -4 -6 -1 -14 5 -18 11 -6 18 -24
20 -53 1 -5 6 -5 13 -1 7 5 8 3 3 -5 -4 -7 -3 -23 3 -34 12 -25 25 -72 28
-102 1 -10 7 -21 13 -23 6 -2 11 -10 11 -18 0 -7 9 -42 19 -76 36 -118 67
-318 87 -568 3 -36 9 -159 12 -275 5 -148 10 -201 16 -181 5 16 6 113 2 220
-16 451 -88 872 -190 1105 -86 199 -152 304 -345 551 -103 133 -161 195 -451
487 -288 291 -233 256 -500 317 -187 44 -242 52 -435 70 -159 15 -551 30 -570
22z m1220 -265 c3 -5 0 -13 -6 -17 -7 -4 -9 -3 -5 4 3 6 -2 13 -11 15 -16 4
-16 5 -1 6 9 0 19 -3 23 -8z m25 -221 c0 -5 -4 -10 -10 -10 -5 0 -10 5 -10 10
0 6 5 10 10 10 6 0 10 -4 10 -10z m105 -30 c-3 -5 -10 -10 -16 -10 -5 0 -9 5
-9 10 0 6 7 10 16 10 8 0 12 -4 9 -10z m37 -17 c-10 -4 -9 -9 4 -24 23 -25 9
-24 -18 1 -12 11 -16 20 -10 20 7 0 12 8 12 17 0 14 2 15 13 4 10 -11 9 -14
-1 -18z m75 -5 c-3 -8 -6 -5 -6 6 -1 11 2 17 5 13 3 -3 4 -12 1 -19z m-27 2
c0 -5 -2 -10 -4 -10 -3 0 -8 5 -11 10 -3 6 -1 10 4 10 6 0 11 -4 11 -10z m115
-50 c15 -6 11 -8 -17 -7 -20 1 -36 3 -36 6 2 19 -4 24 -12 11 -5 -8 -13 -11
-17 -6 -4 5 -2 11 5 13 6 3 12 11 12 19 0 11 6 9 23 -7 12 -11 31 -25 42 -29z
m-200 0 c3 -5 1 -10 -4 -10 -6 0 -11 5 -11 10 0 6 2 10 4 10 3 0 8 -4 11 -10z
m90 -20 c-3 -5 -12 -10 -18 -10 -7 0 -6 4 3 10 19 12 23 12 15 0z m165 0 c0
-5 -4 -10 -10 -10 -5 0 -10 5 -10 10 0 6 5 10 10 10 6 0 10 -4 10 -10z m-36
-21 c-3 -5 -10 -7 -15 -3 -5 3 -7 10 -3 15 3 5 10 7 15 3 5 -3 7 -10 3 -15z
m-204 -5 c0 -17 -22 -14 -28 4 -2 7 3 12 12 12 9 0 16 -7 16 -16z m333 -179
c11 -7 25 -11 32 -9 20 8 41 -36 24 -47 -12 -7 -12 -12 0 -31 13 -21 13 -22
-3 -9 -12 10 -15 23 -11 49 4 27 2 33 -9 29 -16 -6 -66 13 -66 26 0 11 13 8
33 -8z m124 -26 c2 -16 -1 -19 -9 -11 -5 5 -7 15 -4 21 10 15 12 14 13 -10z
m-97 -44 c0 -14 -4 -25 -10 -25 -5 0 -10 11 -10 25 0 14 5 25 10 25 6 0 10
-11 10 -25z m135 -5 c26 -29 15 -32 -15 -4 -13 13 -20 24 -14 24 6 0 19 -9 29
-20z m-25 -29 c13 -25 13 -34 0 -26 -16 10 -32 45 -21 45 6 0 15 -9 21 -19z
m-45 -11 c3 -5 1 -10 -4 -10 -6 0 -11 5 -11 10 0 6 2 10 4 10 3 0 8 -4 11 -10z
m180 -62 c1 -36 0 -37 -20 -20 -24 21 -35 34 -35 46 0 5 9 -1 20 -14 11 -13
22 -21 25 -18 3 3 -1 11 -10 18 -20 17 -19 32 3 28 12 -2 17 -13 17 -40z m88
-147 c-3 -3 -8 -1 -10 6 -2 6 -13 21 -24 34 -10 12 -19 25 -19 28 1 3 14 -9
30 -28 16 -19 27 -37 23 -40z m64 -59 c13 -12 23 -28 23 -33 0 -6 -16 8 -35
31 -19 23 -35 47 -35 53 0 7 6 3 12 -8 6 -10 22 -30 35 -43z"/>
<path d="M4420 13785 c-36 -8 -78 -20 -95 -28 -16 -8 -53 -22 -82 -30 -50 -15
-144 -50 -228 -85 -81 -33 -237 -134 -365 -235 -156 -123 -313 -266 -325 -295
-2 -7 32 19 78 58 45 39 89 77 97 84 8 7 31 23 50 36 19 13 39 30 43 37 4 7
14 13 22 13 8 0 19 8 24 18 6 9 11 13 11 8 0 -5 13 5 30 22 16 17 35 30 42 28
7 -1 10 -1 5 1 -13 8 3 22 19 16 9 -3 28 8 49 30 19 20 52 49 72 64 21 15 40
31 43 34 12 16 157 89 175 89 12 0 26 5 33 12 7 7 12 8 12 3 0 -5 6 -2 13 7 6
9 39 24 72 33 33 9 74 23 90 30 29 13 173 50 225 58 18 3 15 4 -10 5 -19 0
-64 -6 -100 -13z"/>
<path d="M5425 13630 c3 -5 8 -10 11 -10 2 0 4 5 4 10 0 6 -5 10 -11 10 -5 0
-7 -4 -4 -10z"/>
<path d="M5590 13544 c0 -8 5 -12 10 -9 6 4 8 11 5 16 -9 14 -15 11 -15 -7z"/>
<path d="M5515 13480 c-3 -5 -1 -10 4 -10 6 0 11 5 11 10 0 6 -2 10 -4 10 -3
0 -8 -4 -11 -10z"/>
<path d="M5745 13481 c-3 -5 -1 -12 5 -16 5 -3 10 1 10 9 0 18 -6 21 -15 7z"/>
<path d="M5548 13453 c7 -3 16 -2 19 1 4 3 -2 6 -13 5 -11 0 -14 -3 -6 -6z"/>
<path d="M5840 13450 c0 -5 5 -10 11 -10 5 0 7 5 4 10 -3 6 -8 10 -11 10 -2 0
-4 -4 -4 -10z"/>
<path d="M5470 13440 c0 -5 5 -10 10 -10 6 0 10 5 10 10 0 6 -4 10 -10 10 -5
0 -10 -4 -10 -10z"/>
<path d="M5651 13418 c-12 -19 -11 -20 14 -14 16 4 33 2 41 -5 8 -7 17 -9 20
-6 10 10 -5 25 -34 35 -24 8 -31 7 -41 -10z"/>
<path d="M5755 13429 c-11 -17 1 -21 15 -4 8 9 8 15 2 15 -6 0 -14 -5 -17 -11z"/>
<path d="M5796 13424 c-5 -14 -4 -15 9 -4 17 14 19 20 6 20 -5 0 -12 -7 -15
-16z"/>
<path d="M5826 13403 c-6 -14 -5 -15 5 -6 7 7 10 15 7 18 -3 3 -9 -2 -12 -12z"/>
<path d="M3699 13373 l-24 -28 28 24 c25 23 32 31 24 31 -2 0 -14 -12 -28 -27z"/>
<path d="M5705 13320 c3 -5 13 -10 21 -10 8 0 14 5 14 10 0 6 -9 10 -21 10
-11 0 -17 -4 -14 -10z"/>
<path d="M5767 13323 c-12 -12 -7 -22 8 -17 8 4 15 1 15 -5 0 -6 7 -11 15 -11
8 0 15 5 15 10 0 6 -7 10 -15 10 -8 0 -15 5 -15 10 0 11 -13 13 -23 3z"/>
<path d="M5910 13316 c0 -9 5 -16 10 -16 6 0 10 4 10 9 0 6 -4 13 -10 16 -5 3
-10 -1 -10 -9z"/>
<path d="M5560 13294 c0 -8 5 -12 10 -9 6 3 10 10 10 16 0 5 -4 9 -10 9 -5 0
-10 -7 -10 -16z"/>
<path d="M6070 13136 c0 -8 5 -18 10 -21 6 -3 10 3 10 14 0 12 -4 21 -10 21
-5 0 -10 -6 -10 -14z"/>
<path d="M6275 13051 c-6 -5 -21 -11 -34 -13 -30 -4 -41 -28 -13 -28 13 0 23
-11 30 -32 8 -26 10 -28 11 -10 1 23 17 30 23 10 6 -18 28 0 28 23 0 11 -4 18
-9 15 -12 -8 -34 21 -26 34 8 12 2 13 -10 1z"/>
<path d="M6325 12960 c-3 -5 -1 -10 4 -10 6 0 11 5 11 10 0 6 -2 10 -4 10 -3
0 -8 -4 -11 -10z"/>
<path d="M3295 12829 c-87 -11 -102 -17 -50 -19 39 -2 38 -2 -23 -17 -39 -10
-58 -19 -50 -24 7 -4 10 -9 8 -11 -22 -14 -74 -38 -83 -38 -6 0 -31 -10 -55
-21 -32 -16 -40 -24 -30 -30 10 -7 10 -9 -3 -9 -8 0 -26 -11 -39 -25 -13 -14
-20 -25 -15 -25 4 0 -6 -14 -24 -30 -17 -17 -31 -35 -31 -41 0 -12 59 -3 75
12 5 5 19 9 32 9 29 0 30 16 2 25 -19 6 -17 10 21 31 27 15 47 21 54 15 11 -9
91 -26 114 -24 6 0 12 -3 12 -7 0 -5 8 -6 18 -4 9 3 44 0 77 -5 57 -9 55 -9
-41 -8 -70 1 -105 -2 -113 -10 -7 -7 -21 -13 -31 -13 -11 0 -20 -4 -20 -10 0
-5 -11 -10 -25 -10 -14 0 -25 -4 -25 -9 0 -5 9 -7 20 -4 33 9 88 -6 119 -33
18 -15 32 -20 36 -14 4 6 17 4 36 -6 17 -8 33 -13 36 -10 3 3 -14 15 -38 26
-36 16 -39 20 -19 20 31 0 120 -41 139 -63 7 -10 10 -17 5 -17 -5 -1 5 -7 21
-16 44 -22 73 -39 92 -56 10 -8 25 -18 33 -22 18 -10 -54 61 -95 92 l-30 23
35 -17 c19 -9 53 -31 75 -49 22 -18 54 -40 70 -51 l30 -18 -25 28 c-14 15 -37
35 -52 44 -45 26 -32 36 14 10 23 -13 65 -47 95 -75 58 -58 74 -67 49 -28 -27
41 -18 38 29 -10 24 -26 49 -44 54 -40 6 3 19 -11 30 -32 11 -21 20 -32 21
-24 0 7 -10 31 -22 53 -18 31 -24 36 -28 22 -5 -14 -8 -15 -12 -3 -2 8 3 22
13 31 17 16 19 13 50 -48 34 -68 49 -86 49 -60 0 8 3 23 7 33 3 10 3 15 -2 11
-4 -4 -13 -2 -19 5 -19 19 -59 88 -54 92 2 3 14 -13 26 -34 12 -21 33 -46 47
-55 24 -16 37 -45 14 -30 -6 3 -3 -5 6 -20 9 -14 21 -23 26 -20 5 3 9 -1 9 -9
0 -8 6 -20 14 -26 24 -20 26 10 4 49 l-20 35 27 -32 c32 -39 55 -44 30 -7 -12
18 -13 24 -4 19 8 -3 6 0 -3 8 -10 8 -18 18 -18 22 0 5 -11 23 -25 41 l-25 32
28 -7 c17 -5 33 -20 44 -42 l17 -34 1 31 c0 19 -8 38 -21 50 -11 10 -25 28
-31 39 -6 12 2 7 22 -13 37 -37 51 -35 26 3 -9 14 -13 25 -9 25 5 0 16 -14 25
-30 9 -17 14 -30 10 -30 -12 0 -12 -41 -1 -62 6 -10 15 -16 22 -12 7 4 9 4 5
-1 -4 -4 -3 -17 3 -29 10 -20 10 -20 -5 -2 -20 25 -20 19 -1 -34 8 -23 13 -45
11 -49 -3 -4 0 -13 5 -21 8 -11 9 -3 5 28 -4 27 -2 42 5 42 7 0 8 14 3 43 -4
23 -8 50 -9 60 -1 9 -17 39 -36 65 -42 57 -44 63 -27 57 8 -3 22 -21 32 -40
10 -19 23 -33 29 -32 5 1 13 -10 18 -26 4 -16 4 -25 -2 -21 -13 8 -11 -9 5
-31 15 -21 16 -26 16 -52 0 -37 13 0 17 49 4 45 1 57 -16 72 -28 26 -27 44 1
20 22 -19 23 -19 8 1 -8 11 -22 25 -30 32 -8 6 -12 14 -9 17 3 4 19 -4 35 -16
16 -12 5 2 -24 30 -29 29 -51 56 -47 61 3 5 0 13 -6 17 -14 8 -3 -49 17 -88
13 -24 12 -27 -1 -22 -8 4 -15 9 -15 13 0 14 -81 91 -90 86 -6 -4 3 -18 20
-32 38 -31 29 -50 -10 -22 -17 13 -27 29 -25 39 3 14 -11 26 -51 46 -82 41
-57 41 31 -1 42 -20 84 -34 93 -32 11 3 3 10 -25 22 -24 10 -43 22 -43 27 0
11 7 10 32 -3 11 -6 22 -8 25 -5 5 4 -28 22 -57 31 -3 1 -16 6 -30 12 -14 6
-51 16 -83 23 -31 6 -55 15 -52 20 5 8 -18 20 -38 20 -7 0 -6 -4 3 -10 31 -20
-30 -10 -90 14 -33 14 -74 24 -91 24 -16 -1 -35 4 -42 11 -9 9 -2 10 32 5 32
-5 46 -3 53 7 8 11 9 10 4 -4 -4 -14 -1 -16 18 -11 17 4 30 -1 46 -18 13 -13
19 -17 15 -10 -6 11 -3 12 14 3 13 -8 27 -9 38 -3 9 5 25 7 36 4 14 -3 18 -1
13 6 -4 7 -28 12 -54 12 -26 0 -54 5 -62 10 -12 8 -10 10 10 10 18 0 21 3 11
9 -7 5 -21 6 -31 4 -10 -3 -27 4 -38 15 -12 12 -32 20 -49 19 -59 -2 -104 3
-98 12 3 5 19 9 35 9 17 -1 33 2 37 5 3 4 -65 7 -153 8 -152 0 -157 1 -119 15
38 14 85 13 154 -3 17 -4 22 -2 17 6 -4 6 -11 9 -16 6 -5 -3 -12 0 -15 6 -11
18 -48 27 -76 19 -15 -5 -31 -4 -35 0 -5 4 -18 10 -29 13 -18 4 -18 5 3 6 12
0 22 6 22 11 0 6 12 10 26 10 14 0 32 7 40 15 9 8 12 14 7 14 -4 -1 -39 -6
-78 -10z m-31 -55 c9 -3 16 -10 16 -15 0 -11 -41 -12 -67 -2 -16 6 -15 8 7 14
14 4 26 7 27 8 1 1 8 -2 17 -5z m-94 -74 c-8 -5 -26 -9 -40 -9 -23 1 -23 2 5
9 43 11 52 11 35 0z m287 4 c-3 -3 -12 -4 -19 -1 -8 3 -5 6 6 6 11 1 17 -2 13
-5z m93 -46 c10 -6 5 -8 -19 -4 -18 3 -56 6 -83 6 -33 0 -47 4 -42 11 7 12
120 3 144 -13z m-320 2 c0 -5 -2 -10 -4 -10 -3 0 -8 5 -11 10 -3 6 -1 10 4 10
6 0 11 -4 11 -10z m65 -10 c-28 -12 -55 -12 -55 0 0 6 17 10 38 9 30 0 33 -2
17 -9z m-150 -10 c-3 -5 -13 -10 -21 -10 -8 0 -14 5 -14 10 0 6 9 10 21 10 11
0 17 -4 14 -10z m328 -7 c-13 -2 -33 -2 -45 0 -13 2 -3 4 22 4 25 0 35 -2 23
-4z m-128 -23 c-3 -5 -19 -10 -35 -10 -16 0 -32 5 -35 10 -4 6 10 10 35 10 25
0 39 -4 35 -10z m-150 -60 c-20 -9 -20 -9 1 -9 11 -1 25 4 32 11 9 9 12 8 12
-7 0 -16 2 -17 9 -6 7 11 19 12 75 0 36 -7 66 -17 66 -22 0 -5 7 -6 16 -3 8 3
12 2 9 -4 -6 -10 -69 -5 -124 10 -19 5 -38 7 -43 3 -6 -3 -38 1 -71 8 -60 13
-61 14 -27 20 51 9 68 9 45 -1z m551 -36 c18 -14 18 -14 -6 -3 -31 14 -36 19
-24 19 6 0 19 -7 30 -16z m91 -49 l28 -25 -32 16 c-34 16 -52 34 -34 34 5 0
23 -11 38 -25z m105 -89 c7 4 8 2 4 -5 -9 -13 -26 -5 -25 12 0 9 2 8 6 -1 2
-6 10 -9 15 -6z m-154 -51 c-3 -3 -13 7 -23 22 l-17 28 23 -22 c12 -12 20 -25
17 -28z m-123 24 c11 -17 -1 -21 -15 -4 -8 9 -8 15 -2 15 6 0 14 -5 17 -11z
m90 -19 l20 -25 -22 19 c-13 11 -23 24 -23 29 0 6 1 8 3 6 1 -2 11 -15 22 -29z
m133 -65 c-3 -3 -9 2 -12 12 -6 14 -5 15 5 6 7 -7 10 -15 7 -18z m164 -27 c-9
-9 -12 -7 -12 12 0 19 3 21 12 12 9 -9 9 -15 0 -24z"/>
<path d="M6366 12801 c-3 -5 1 -11 9 -15 9 -3 15 0 15 9 0 16 -16 20 -24 6z"/>
<path d="M6410 12779 c0 -11 5 -17 10 -14 6 3 10 13 10 21 0 8 -4 14 -10 14
-5 0 -10 -9 -10 -21z"/>
<path d="M6612 12760 c0 -14 2 -19 5 -12 2 6 2 18 0 25 -3 6 -5 1 -5 -13z"/>
<path d="M3105 12580 c-7 -12 2 -12 30 0 19 8 19 9 -2 9 -12 1 -25 -3 -28 -9z"/>
<path d="M3055 12570 c-3 -6 1 -7 9 -4 18 7 21 14 7 14 -6 0 -13 -4 -16 -10z"/>
<path d="M3800 12571 c15 -10 108 -16 98 -6 -2 3 -29 7 -59 10 -38 4 -50 3
-39 -4z"/>
<path d="M2910 12500 c35 -11 72 -12 66 -1 -3 5 -25 9 -48 9 -35 -1 -39 -2
-18 -8z"/>
<path d="M3240 12452 c0 -5 12 -14 26 -20 14 -7 23 -8 19 -2 -9 15 -45 32 -45
22z"/>
<path d="M6957 12429 c4 -13 8 -18 11 -10 2 7 -1 18 -6 23 -8 8 -9 4 -5 -13z"/>
<path d="M3355 12400 c4 -6 11 -8 16 -5 14 9 11 15 -7 15 -8 0 -12 -5 -9 -10z"/>
<path d="M3395 12391 c3 -5 -3 -11 -12 -13 -12 -2 2 -14 41 -36 71 -38 83 -37
21 2 -27 18 -42 33 -38 42 3 8 0 14 -7 14 -6 0 -9 -4 -5 -9z"/>
<path d="M4202 12290 c0 -14 2 -19 5 -12 2 6 2 18 0 25 -3 6 -5 1 -5 -13z"/>
<path d="M3646 12290 c5 -8 12 -19 16 -25 5 -5 15 -19 23 -30 8 -11 15 -15 15
-10 0 6 -14 26 -31 45 -17 19 -27 28 -23 20z"/>
<path d="M4246 12274 c-6 -24 -2 -44 8 -33 9 11 15 59 7 59 -5 0 -12 -12 -15
-26z"/>
<path d="M4191 12244 c0 -11 3 -14 6 -6 3 7 2 16 -1 19 -3 4 -6 -2 -5 -13z"/>
<path d="M3780 12221 c0 -6 4 -13 10 -16 6 -3 7 1 4 9 -7 18 -14 21 -14 7z"/>
<path d="M4231 12215 c-1 -11 -4 -31 -7 -45 -5 -22 -4 -23 6 -7 6 10 9 30 7
45 -3 18 -5 20 -6 7z"/>
<path d="M4017 12189 c4 -13 8 -18 11 -10 2 7 -1 18 -6 23 -8 8 -9 4 -5 -13z"/>
<path d="M4165 12143 c-4 -16 -9 -59 -10 -98 -2 -56 -1 -63 6 -35 10 41 21
160 15 160 -2 0 -7 -12 -11 -27z"/>
<path d="M4301 12095 c-19 -35 -37 -63 -40 -61 -3 2 -6 -11 -7 -29 -1 -37 15
-38 17 -2 1 17 3 15 9 -8 7 -29 8 -29 9 9 0 22 13 64 27 93 36 77 25 75 -15
-2z"/>
<path d="M4386 12125 c-9 -26 -7 -32 5 -12 6 10 9 21 6 23 -2 3 -7 -2 -11 -11z"/>
<path d="M4191 12066 c-6 -27 -10 -50 -8 -52 7 -7 30 73 25 87 -2 7 -10 -8
-17 -35z"/>
<path d="M4126 12058 c-3 -13 -6 -27 -6 -33 1 -15 30 27 30 42 0 22 -17 15
-24 -9z"/>
<path d="M4170 11981 c0 -25 6 -27 13 -6 4 8 2 17 -3 20 -6 4 -10 -3 -10 -14z"/>
<path d="M4318 11937 c-3 -19 -2 -25 4 -19 6 6 8 18 6 28 -3 14 -5 12 -10 -9z"/>
<path d="M4399 11903 c-22 -46 -22 -50 1 -15 13 18 20 35 18 37 -3 3 -11 -7
-19 -22z"/>
<path d="M4301 11884 c0 -11 3 -14 6 -6 3 7 2 16 -1 19 -3 4 -6 -2 -5 -13z"/>
<path d="M2708 11800 c-7 -16 -16 -30 -20 -30 -5 0 -8 -5 -8 -12 0 -6 -7 -20
-17 -30 -15 -17 -15 -18 3 -19 10 -1 26 -2 34 -3 8 -2 25 -3 38 -4 15 -1 21
-6 16 -14 -5 -8 -2 -9 9 -5 10 3 17 2 17 -3 0 -6 -5 -10 -12 -10 -6 0 -8 -3
-5 -7 4 -3 41 -6 83 -5 l76 0 -22 -20 c-12 -11 -20 -22 -18 -24 2 -2 28 3 58
11 65 17 80 18 60 4 -11 -8 0 -9 39 -4 49 5 53 4 41 -9 -11 -14 -7 -16 33 -16
25 0 49 5 52 10 3 6 16 10 28 10 20 0 20 0 1 -16 -18 -15 -18 -15 11 -10 29 6
29 6 10 -10 l-20 -17 20 8 c66 24 77 27 83 20 4 -3 -4 -15 -17 -24 l-24 -19
24 -7 c13 -5 43 -8 67 -7 23 0 40 -4 36 -9 -3 -5 3 -9 13 -9 11 0 24 -5 31
-12 9 -9 12 -9 12 2 0 7 3 10 6 7 4 -4 2 -13 -5 -20 -8 -11 -7 -19 8 -35 10
-12 23 -22 30 -22 6 0 11 -5 11 -11 0 -7 -24 -9 -70 -7 -39 2 -70 0 -70 -4 0
-5 12 -8 28 -9 l27 -1 -25 -7 -25 -7 30 -6 c17 -4 32 -2 33 3 2 5 21 9 43 9
30 0 37 -3 33 -15 -4 -8 -15 -15 -26 -15 -15 0 -18 -4 -12 -22 9 -31 14 -35
23 -19 7 11 11 9 20 -7 15 -28 14 -31 -8 -25 -23 6 -39 -16 -20 -27 7 -5 28
-7 46 -4 21 2 46 -4 70 -17 30 -17 41 -19 56 -9 10 6 21 9 24 6 3 -2 24 4 48
14 28 12 45 15 47 8 2 -6 20 6 41 27 20 20 37 33 37 28 0 -5 -5 -14 -12 -21
-16 -16 -3 -26 19 -17 10 5 23 9 30 9 18 1 50 40 45 54 -6 19 46 82 69 82 24
0 35 25 20 44 -6 7 -8 22 -4 31 5 14 3 17 -10 12 -14 -5 -15 -3 -5 13 10 15 9
26 -5 55 -9 20 -17 41 -17 48 0 7 -16 21 -35 31 -19 11 -35 25 -35 33 0 8 -8
13 -17 12 -27 -4 -60 10 -67 27 -3 8 -11 12 -17 9 -6 -4 -13 2 -16 14 -3 12
-9 21 -14 21 -5 0 -6 7 -3 15 4 8 2 15 -4 15 -6 0 -13 -18 -17 -40 -4 -22 -11
-38 -16 -34 -5 3 -12 -8 -15 -25 -7 -35 -18 -39 -34 -13 -9 15 -12 14 -35 -13
l-26 -30 6 26 c7 27 -11 51 -24 32 -3 -5 -14 -13 -25 -16 -12 -5 -16 -13 -12
-23 5 -14 4 -15 -9 -4 -12 10 -19 10 -27 2 -9 -9 -8 -12 5 -12 29 0 19 -20
-10 -21 l-28 -1 25 -7 c20 -6 22 -8 8 -13 -19 -8 -60 1 -69 15 -4 5 -18 10
-33 10 -14 0 -26 2 -26 6 0 12 -139 65 -148 56 -3 -3 -14 2 -24 12 -13 12 -18
13 -18 3 0 -10 -5 -9 -18 3 -10 10 -31 17 -45 17 -15 0 -27 3 -27 8 0 4 -10 8
-22 9 -13 0 -50 8 -83 16 -33 8 -82 20 -110 27 -27 6 -64 16 -81 21 -17 5 -47
9 -66 9 -31 0 -38 -5 -50 -30z m852 -200 c0 -5 -2 -10 -4 -10 -3 0 -8 5 -11
10 -3 6 -1 10 4 10 6 0 11 -4 11 -10z m-245 -40 c3 -5 1 -10 -4 -10 -6 0 -11
5 -11 10 0 6 2 10 4 10 3 0 8 -4 11 -10z m241 -129 c-3 -5 -16 -11 -28 -14
-22 -6 -22 -5 -4 8 22 17 40 20 32 6z m29 -151 c3 -5 -1 -10 -9 -10 -9 0 -16
5 -16 10 0 6 4 10 9 10 6 0 13 -4 16 -10z"/>
<path d="M3713 11780 c-1 -17 2 -30 7 -30 6 0 10 14 10 30 0 39 -14 39 -17 0z"/>
<path d="M4356 11773 c-6 -14 -5 -15 5 -6 7 7 10 15 7 18 -3 3 -9 -2 -12 -12z"/>
<path d="M3442 11728 c8 -23 37 -34 50 -19 11 12 10 13 -4 8 -12 -4 -15 -2
-11 9 3 9 -2 14 -17 14 -12 0 -20 -5 -18 -12z"/>
<path d="M3390 11695 c-7 -8 -10 -19 -6 -23 4 -4 12 1 18 11 8 15 12 16 25 5
14 -11 15 -11 11 2 -7 21 -32 24 -48 5z"/>
<path d="M3464 11664 c7 -8 17 -9 29 -3 24 13 22 16 -12 16 -22 0 -26 -3 -17
-13z"/>
<path d="M5540 11620 c-8 -5 -11 -12 -7 -16 4 -4 15 0 24 9 18 18 8 23 -17 7z"/>
<path d="M5488 11599 c-10 -5 -18 -17 -18 -24 0 -8 -4 -15 -10 -15 -5 0 -10
-6 -10 -14 0 -7 -9 -16 -20 -19 -11 -3 -20 -11 -20 -17 0 -10 3 -10 15 0 18
15 20 0 3 -20 -11 -12 -10 -12 5 -1 9 7 17 19 17 27 0 7 6 19 13 26 13 14 49
68 45 68 -2 0 -11 -5 -20 -11z"/>
<path d="M5660 11600 c-12 -8 -11 -10 8 -10 12 0 22 5 22 10 0 13 -11 13 -30
0z"/>
<path d="M5595 11590 c-3 -5 -1 -10 4 -10 6 0 11 5 11 10 0 6 -2 10 -4 10 -3
0 -8 -4 -11 -10z"/>
<path d="M5765 11590 c3 -5 8 -10 11 -10 2 0 4 5 4 10 0 6 -5 10 -11 10 -5 0
-7 -4 -4 -10z"/>
<path d="M5498 11558 c-33 -45 -59 -88 -54 -88 2 0 23 27 45 60 44 64 50 82 9
28z"/>
<path d="M5650 11569 c-30 -3 -70 -13 -89 -21 l-34 -16 41 2 c22 0 38 4 36 7
-7 12 25 19 82 19 30 0 54 4 54 8 0 9 -15 9 -90 1z"/>
<path d="M5391 11534 c-22 -27 -27 -44 -13 -44 7 0 45 70 38 70 -3 0 -14 -12
-25 -26z"/>
<path d="M5745 11550 c-8 -13 -68 -21 -75 -10 -5 8 -18 6 -41 -4 -19 -8 -47
-18 -64 -22 -16 -3 -24 -9 -18 -11 7 -3 -5 -18 -29 -36 -23 -18 -57 -54 -76
-82 l-35 -50 56 60 c31 33 56 54 57 48 0 -7 -4 -13 -8 -13 -5 0 -14 -12 -21
-27 l-13 -28 29 28 c16 15 35 27 42 27 7 0 9 5 6 10 -4 6 6 10 22 11 23 0 25
2 9 8 -18 7 -18 8 -2 14 24 9 28 9 21 -3 -8 -13 8 -13 40 2 16 7 21 14 14 18
-7 5 -5 9 6 13 9 4 13 3 10 -3 -3 -6 -1 -10 6 -10 19 0 -1 -15 -41 -30 -19 -7
-49 -29 -67 -49 -31 -35 -37 -55 -10 -33 8 7 17 9 20 6 3 -3 16 1 29 10 12 9
32 16 44 16 12 0 44 11 71 24 31 16 58 22 76 19 43 -8 32 -24 -15 -22 -53 3
-135 -35 -104 -47 11 -4 21 -2 27 7 6 11 11 11 20 2 18 -18 -36 -29 -57 -13
-11 10 -18 10 -26 2 -7 -7 -18 -12 -26 -12 -13 0 -20 -6 -57 -49 l-20 -24 32
17 c28 14 32 14 27 1 -9 -23 10 -18 36 10 23 25 47 35 34 14 -3 -6 8 -4 24 5
17 9 39 16 49 15 15 0 14 -2 -3 -9 -30 -12 -43 -34 -15 -25 35 11 24 -4 -15
-20 -20 -8 -46 -13 -58 -11 -11 2 -15 1 -8 -1 11 -4 11 -7 0 -20 -11 -14 -10
-15 12 -8 14 4 42 16 63 25 45 22 50 9 5 -14 l-33 -17 35 6 35 6 -25 -16 c-18
-12 -20 -15 -5 -10 43 14 112 17 119 6 5 -7 -2 -11 -17 -11 -20 0 -24 -4 -20
-19 3 -13 -2 -20 -21 -25 -14 -3 -26 -11 -26 -17 0 -6 8 -9 18 -6 9 3 32 10
50 16 26 8 31 7 24 -2 -13 -16 11 -40 25 -26 6 6 19 6 34 0 l24 -9 -25 -10
c-24 -9 -24 -10 17 -21 23 -6 45 -16 48 -21 4 -6 18 -9 33 -9 15 1 44 -8 65
-20 43 -27 48 -35 11 -21 -14 6 -37 10 -52 9 -25 -1 -24 -2 8 -11 61 -18 90
-30 85 -37 -2 -4 6 -7 18 -7 15 1 21 -4 19 -15 -3 -20 40 -40 59 -28 11 7 10
9 -6 10 -11 0 -15 3 -8 5 16 7 75 -25 68 -37 -4 -5 -3 -8 2 -7 16 4 53 -14 48
-23 -3 -5 0 -6 8 -4 7 3 29 -8 48 -26 l34 -31 -30 15 c-16 9 -60 26 -97 38
-37 12 -64 27 -61 32 3 6 1 7 -5 3 -6 -4 -29 4 -50 18 -36 22 -112 50 -112 40
0 -6 113 -57 123 -56 4 1 7 -4 7 -12 0 -14 34 -31 87 -41 18 -4 55 -17 83 -31
27 -13 54 -24 59 -24 11 0 67 -73 63 -83 -1 -5 3 -5 9 -1 9 5 10 2 5 -12 -4
-10 -4 -15 0 -11 7 6 27 -13 138 -133 23 -25 51 -62 61 -83 11 -21 30 -49 42
-64 13 -14 23 -31 23 -36 0 -6 3 -8 6 -4 4 3 -7 28 -24 55 -16 26 -33 58 -36
70 -4 12 -23 35 -42 51 -22 18 -34 36 -33 47 2 11 0 24 -4 30 -4 7 0 14 8 18
10 3 15 -1 15 -14 0 -10 4 -21 9 -25 6 -3 6 5 1 22 -5 16 -15 49 -24 74 -9 31
-12 58 -6 82 4 20 3 41 -2 48 -7 11 -8 9 -4 -4 4 -12 2 -16 -6 -11 -8 5 -9 -3
-5 -27 l6 -34 -19 35 c-19 35 -28 68 -10 40 5 -8 12 -11 17 -7 4 5 -2 26 -15
47 -26 45 -28 57 -7 40 8 -7 13 -15 11 -19 -2 -3 2 -15 10 -26 8 -10 14 -15
14 -11 0 5 8 -2 19 -15 11 -14 22 -51 27 -89 4 -36 10 -56 12 -46 4 18 5 18
23 -5 24 -32 25 -5 0 29 -23 34 -38 77 -22 68 6 -4 11 -2 11 4 0 6 4 9 9 5 11
-6 -1 41 -19 74 -6 13 -14 34 -16 48 -3 14 -11 32 -19 40 -19 18 -19 23 0 23
14 0 34 -34 41 -70 6 -37 30 -86 40 -83 6 2 16 -9 23 -24 13 -28 13 -28 -8 -9
-21 19 -21 19 -10 -12 6 -18 15 -32 20 -32 4 0 6 -7 3 -15 -4 -8 -1 -15 5 -15
6 0 21 -21 34 -47 12 -27 27 -52 34 -58 7 -5 15 -23 19 -39 5 -22 4 -27 -6
-21 -9 6 -11 4 -5 -5 4 -7 9 -29 9 -49 1 -20 4 -72 6 -116 l3 -80 7 60 c3 33
4 69 0 80 -4 11 -6 61 -5 110 1 50 -1 97 -5 105 -4 8 -17 35 -28 60 -12 25
-24 44 -27 43 -15 -8 -25 -1 -25 15 0 11 -13 38 -30 60 -16 23 -30 49 -30 57
0 9 -18 51 -40 94 -22 43 -40 85 -40 95 0 9 -4 15 -9 11 -6 -3 -4 -22 5 -47
17 -49 17 -48 2 -48 -14 0 -38 45 -38 71 0 25 -11 49 -21 49 -13 0 -11 -32 6
-81 12 -38 12 -41 0 -24 -8 11 -35 42 -60 69 -25 28 -50 67 -57 88 -6 20 -15
35 -20 32 -4 -3 -5 -11 -1 -17 4 -7 8 -16 9 -22 7 -45 28 -99 45 -116 11 -11
17 -24 14 -29 -3 -5 2 -22 12 -37 17 -27 17 -27 0 -14 -15 12 -76 130 -77 149
-1 4 -14 22 -29 40 -23 27 -30 30 -35 17 -3 -9 -2 -14 3 -11 5 3 14 -9 21 -27
6 -17 16 -39 21 -47 25 -42 69 -130 64 -130 -3 0 4 -18 15 -40 11 -23 18 -45
15 -51 -4 -5 3 -26 14 -45 27 -45 27 -69 0 -28 -11 18 -21 45 -23 60 -3 16
-20 62 -40 101 -20 40 -36 78 -36 85 0 9 -3 9 -10 -2 -7 -12 -12 -7 -25 22 -8
21 -15 43 -15 50 0 16 -68 113 -78 112 -4 0 -16 17 -26 38 -11 21 -21 37 -22
35 -7 -7 24 -95 39 -112 10 -11 23 -29 28 -40 7 -15 4 -13 -13 6 -13 14 -41
36 -63 48 -22 13 -32 16 -22 8 10 -9 14 -18 8 -21 -9 -6 -71 75 -71 93 0 5
-11 16 -25 25 -16 11 -22 22 -18 33 5 11 3 14 -6 8 -13 -8 -55 10 -81 34 -8 8
-37 25 -65 38 -52 25 -86 44 -95 53 -3 3 -26 6 -53 6 -26 0 -53 6 -60 13 -10
11 -8 12 11 6 12 -3 22 -2 22 3 0 12 -49 22 -55 12z m133 -81 c2 -5 9 -9 17
-9 7 0 18 -7 25 -15 11 -13 10 -14 -6 -8 -10 4 -30 13 -44 20 -14 7 -36 13
-50 13 -20 0 -22 2 -10 10 17 11 63 4 68 -11z m-171 -29 c-20 -11 -44 -20 -52
-20 -9 0 -30 -7 -48 -16 -18 -9 -27 -11 -21 -5 12 13 122 59 144 60 8 1 -2 -8
-23 -19z m168 -50 c4 -6 -6 -10 -22 -10 -22 0 -25 2 -13 10 19 12 27 12 35 0z
m112 -6 c-3 -3 -12 -4 -19 -1 -8 3 -5 6 6 6 11 1 17 -2 13 -5z m-124 -41 c-7
-2 -19 -2 -25 0 -7 3 -2 5 12 5 14 0 19 -2 13 -5z m-58 -13 c-11 -5 -27 -9
-35 -9 -13 -1 -13 0 0 9 8 5 24 9 35 9 l20 0 -20 -9z m259 -56 c9 -8 20 -12
26 -9 5 3 17 2 27 -3 13 -8 11 -10 -13 -8 -27 1 -92 36 -67 36 6 0 19 -7 27
-16z m-267 0 c-3 -3 -12 -4 -19 -1 -8 3 -5 6 6 6 11 1 17 -2 13 -5z m374 -61
c13 -16 12 -17 -3 -4 -17 13 -22 21 -14 21 2 0 10 -8 17 -17z m-111 -7 c0 -11
-19 -15 -25 -6 -3 5 1 10 9 10 9 0 16 -2 16 -4z m231 -53 c13 -16 12 -17 -3
-4 -17 13 -22 21 -14 21 2 0 10 -8 17 -17z m-13 -24 c19 -30 11 -32 -11 -3
-10 13 -14 24 -10 24 5 0 14 -9 21 -21z m-25 -55 c37 -44 30 -44 -13 1 -19 19
-30 35 -24 34 5 0 22 -16 37 -35z m-58 6 c10 -11 16 -20 13 -20 -3 0 -13 9
-23 20 -10 11 -16 20 -13 20 3 0 13 -9 23 -20z m381 -59 c2 -7 7 -18 13 -24
19 -19 12 -31 -8 -13 -11 10 -22 30 -26 44 -3 15 -8 36 -11 47 -3 12 2 8 13
-10 9 -16 18 -36 19 -44z m-265 42 c13 -16 12 -17 -3 -4 -10 7 -18 15 -18 17
0 8 8 3 21 -13z m-66 -23 c10 -11 16 -20 13 -20 -3 0 -13 9 -23 20 -10 11 -16
20 -13 20 3 0 13 -9 23 -20z m132 -71 c-1 -5 11 -19 27 -32 20 -16 24 -24 13
-24 -9 0 -14 4 -11 9 3 4 -2 8 -10 8 -13 0 -39 33 -40 50 0 3 -10 13 -23 23
-13 10 -23 24 -23 30 0 6 16 -4 35 -23 18 -18 33 -37 32 -41z m-131 39 l19
-23 -25 20 c-14 11 -27 21 -29 22 -2 2 0 3 6 3 5 0 18 -10 29 -22z m393 -20
c15 -29 17 -38 7 -38 -8 0 -16 10 -19 23 -2 12 -8 31 -12 42 -12 29 -1 16 24
-27z m-220 -22 c-3 -3 -11 5 -18 17 -13 21 -12 21 5 5 10 -10 16 -20 13 -22z
m131 -20 c0 -6 -7 -1 -15 10 -8 10 -15 23 -15 28 0 6 7 1 15 -10 8 -10 15 -23
15 -28z m109 -39 c0 -9 -2 -8 -6 1 -2 6 -10 9 -15 6 -7 -4 -8 -2 -4 5 9 13 26
5 25 -12z m-208 -42 c34 -38 65 -50 33 -12 -19 22 -19 22 1 5 12 -9 21 -27 22
-40 2 -25 42 -60 58 -51 5 4 7 3 4 -1 -4 -4 8 -33 27 -63 19 -31 34 -60 34
-65 0 -15 -19 -8 -24 10 -3 9 -28 41 -56 71 -27 30 -50 62 -50 71 0 10 -6 20
-13 23 -15 6 -83 87 -73 87 4 0 20 -16 37 -35z m112 8 c8 -16 18 -39 21 -53 4
-14 -4 -3 -18 23 -27 50 -29 57 -21 57 2 0 11 -12 18 -27z m137 -21 c0 -15 -2
-15 -10 -2 -13 20 -13 33 0 25 6 -3 10 -14 10 -23z m-160 -52 c0 -5 -2 -10 -4
-10 -3 0 -8 5 -11 10 -3 6 -1 10 4 10 6 0 11 -4 11 -10z m80 -34 c10 -13 10
-17 3 -12 -7 4 -13 3 -13 -3 0 -5 4 -12 9 -15 12 -8 20 -56 10 -56 -5 0 -9 9
-9 19 0 11 -4 22 -9 26 -5 3 -9 19 -9 35 1 17 2 29 2 28 1 -2 8 -12 16 -22z
m209 -18 c19 -50 23 -73 13 -63 -17 16 -42 85 -31 85 5 0 13 -10 18 -22z"/>
<path d="M5820 11546 c0 -2 7 -7 16 -10 8 -3 12 -2 9 4 -6 10 -25 14 -25 6z"/>
<path d="M5297 11527 c-4 -10 -7 -26 -7 -35 1 -15 2 -15 11 1 6 10 9 25 7 35
-3 16 -4 15 -11 -1z"/>
<path d="M4073 11515 c-9 -25 4 -29 17 -6 7 15 7 21 0 21 -6 0 -13 -7 -17 -15z"/>
<path d="M5338 11497 c-3 -19 -2 -25 4 -19 6 6 8 18 6 28 -3 14 -5 12 -10 -9z"/>
<path d="M5464 11468 c-32 -38 -66 -89 -61 -94 2 -2 23 23 46 56 43 61 50 78
15 38z"/>
<path d="M5292 11425 c0 -16 2 -22 5 -12 2 9 2 23 0 30 -3 6 -5 -1 -5 -18z"/>
<path d="M5390 11430 c-6 -11 -8 -20 -6 -20 3 0 10 9 16 20 6 11 8 20 6 20 -3
0 -10 -9 -16 -20z"/>
<path d="M6182 11380 c12 -17 23 -30 25 -30 8 0 -22 50 -33 54 -9 3 -5 -7 8
-24z"/>
<path d="M6240 11380 c0 -5 5 -10 10 -10 6 0 10 5 10 10 0 6 -4 10 -10 10 -5
0 -10 -4 -10 -10z"/>
<path d="M4041 11334 c0 -11 3 -14 6 -6 3 7 2 16 -1 19 -3 4 -6 -2 -5 -13z"/>
<path d="M5670 11309 c0 -5 5 -7 10 -4 6 3 10 8 10 11 0 2 -4 4 -10 4 -5 0
-10 -5 -10 -11z"/>
<path d="M6306 11307 c3 -10 9 -15 12 -12 3 3 0 11 -7 18 -10 9 -11 8 -5 -6z"/>
<path d="M3965 11300 c3 -5 8 -10 11 -10 2 0 4 5 4 10 0 6 -5 10 -11 10 -5 0
-7 -4 -4 -10z"/>
<path d="M6330 11301 c0 -14 42 -83 47 -77 5 5 -35 86 -42 86 -3 0 -5 -4 -5
-9z"/>
<path d="M3870 11271 c0 -6 5 -13 10 -16 6 -3 10 1 10 9 0 9 -4 16 -10 16 -5
0 -10 -4 -10 -9z"/>
<path d="M3964 11262 c3 -6 -3 -17 -14 -25 -29 -20 -13 -29 21 -11 35 17 35
20 8 35 -13 7 -19 7 -15 1z"/>
<path d="M3880 11200 c0 -5 4 -10 9 -10 6 0 13 5 16 10 3 6 -1 10 -9 10 -9 0
-16 -4 -16 -10z"/>
<path d="M6485 11200 c3 -5 8 -10 11 -10 2 0 4 5 4 10 0 6 -5 10 -11 10 -5 0
-7 -4 -4 -10z"/>
<path d="M6516 11182 c-7 -11 4 -52 13 -52 4 0 6 14 3 30 -4 31 -7 35 -16 22z"/>
<path d="M5750 11150 c-9 -6 -10 -10 -3 -10 6 0 15 5 18 10 8 12 4 12 -15 0z"/>
<path d="M3763 11133 c9 -2 23 -2 30 0 6 3 -1 5 -18 5 -16 0 -22 -2 -12 -5z"/>
<path d="M6685 11069 c3 -18 13 -43 21 -58 8 -14 13 -18 10 -9 -3 9 -10 35
-16 57 -13 48 -23 55 -15 10z"/>
<path d="M4275 11040 c3 -5 8 -10 11 -10 2 0 4 5 4 10 0 6 -5 10 -11 10 -5 0
-7 -4 -4 -10z"/>
<path d="M7212 10930 c0 -19 2 -27 5 -17 2 9 2 25 0 35 -3 9 -5 1 -5 -18z"/>
<path d="M6183 10893 c9 -2 17 -9 17 -14 0 -5 5 -9 11 -9 8 0 8 5 -1 15 -7 8
-20 14 -29 14 -13 -1 -13 -2 2 -6z"/>
<path d="M6235 10860 c3 -5 8 -10 11 -10 2 0 4 5 4 10 0 6 -5 10 -11 10 -5 0
-7 -4 -4 -10z"/>
<path d="M5196 10852 c-3 -2 -22 -6 -42 -8 -21 -2 -40 -8 -44 -13 -3 -6 -22
-17 -41 -25 -37 -16 -74 -59 -64 -76 3 -5 12 -7 20 -3 8 3 15 0 15 -6 0 -19
30 -12 30 7 1 15 2 15 13 1 7 -9 25 -19 40 -23 30 -7 32 -32 3 -29 -10 0 -15
-2 -12 -5 12 -11 -25 -40 -46 -34 -18 4 -19 3 -9 -16 9 -18 8 -23 -9 -32 -12
-6 -20 -20 -19 -33 1 -17 2 -18 6 -4 2 9 9 17 14 17 9 0 11 -5 13 -32 1 -18
19 -37 29 -31 5 3 11 -4 14 -16 3 -11 16 -27 29 -36 22 -14 24 -14 24 4 0 13
10 21 33 26 17 4 35 7 40 6 17 -3 5 48 -15 62 -23 16 -23 16 10 15 21 -2 38
-10 47 -25 13 -20 13 -22 -5 -28 -11 -4 -20 -14 -20 -23 1 -16 2 -16 13 -1 22
29 53 32 77 7 11 -13 19 -30 17 -40 -3 -11 0 -15 9 -11 8 3 22 -5 32 -17 15
-19 22 -21 39 -12 19 10 20 9 16 -9 -4 -16 -8 -18 -14 -7 -5 7 -9 9 -9 3 0
-14 16 -37 25 -37 4 0 11 6 16 13 4 8 11 10 15 6 4 -4 2 -13 -4 -19 -7 -7 -12
-16 -12 -21 0 -5 9 2 21 16 17 23 23 25 40 14 10 -6 17 -17 15 -24 -3 -6 -1
-24 4 -40 6 -19 9 -22 9 -9 1 11 4 16 8 13 3 -4 12 2 20 13 8 11 19 20 25 20
7 0 -1 -13 -17 -30 -30 -31 -25 -42 7 -13 20 18 25 4 6 -15 -9 -9 -8 -12 4
-12 25 0 48 -45 50 -97 l1 -48 4 43 c2 23 9 42 14 42 6 0 7 -6 4 -12 -4 -7 0
-5 8 5 14 17 16 14 31 -36 9 -30 16 -63 16 -73 0 -24 11 -11 14 17 3 29 21 36
20 9 0 -16 2 -17 13 -8 8 6 13 7 12 2 -5 -17 13 -99 27 -126 12 -22 12 -28 2
-29 -7 0 -3 -5 10 -11 17 -8 22 -18 18 -32 -5 -20 8 -56 17 -46 2 3 11 18 19
33 l14 29 14 -44 c11 -37 14 -40 21 -23 6 13 7 5 4 -25 -6 -42 -5 -44 9 -25 9
11 16 27 16 35 0 8 5 22 10 30 8 11 9 7 4 -15 -4 -23 -3 -26 5 -15 6 8 11 11
12 5 4 -43 7 -56 12 -62 4 -3 7 13 7 36 0 48 25 85 40 60 5 -7 12 -31 15 -51
4 -21 10 -40 14 -43 5 -2 4 18 -1 46 -5 28 -7 54 -4 57 10 9 46 -36 46 -58 0
-11 4 -20 8 -20 5 0 7 15 5 33 -3 24 -2 29 6 17 6 -8 11 -12 11 -7 0 4 8 -1
19 -10 10 -10 35 -32 55 -50 20 -18 36 -36 36 -40 0 -4 11 -13 25 -20 14 -6
25 -7 25 -2 0 5 10 9 23 10 21 1 21 1 -3 9 l-25 8 27 1 c49 2 58 10 58 57 0
36 -3 44 -18 44 -10 0 -29 11 -42 25 -13 14 -28 24 -34 22 -5 -2 -17 3 -25 10
-48 41 -81 63 -95 63 -9 0 -29 11 -43 24 -14 13 -39 27 -55 30 -16 3 -27 10
-23 16 3 5 -1 10 -10 10 -20 0 -115 77 -229 185 -17 17 -46 41 -64 55 -18 14
-39 40 -47 58 -8 18 -19 31 -25 27 -5 -3 -10 2 -11 12 0 10 -3 13 -6 6 -8 -22
-25 -14 -18 8 5 16 3 20 -12 17 -15 -2 -18 3 -16 30 1 30 -2 33 -41 44 -23 6
-50 22 -60 35 l-18 24 23 -13 c13 -7 27 -17 30 -21 7 -9 49 13 49 25 0 11 -18
10 -25 -2 -8 -13 -35 -1 -35 16 0 8 -4 14 -10 14 -5 0 -10 8 -10 17 0 9 -7 25
-16 35 -16 17 -18 17 -30 0 -12 -16 -13 -15 -11 6 1 12 7 22 15 22 22 0 -11
28 -44 37 l-29 7 35 6 35 6 -30 13 c-16 7 -38 17 -47 22 -10 5 -33 9 -51 9
-39 0 -51 8 -36 26 8 10 5 11 -11 7 -13 -4 -26 0 -31 8 -6 10 -9 10 -9 2 0 -7
-5 -13 -11 -13 -7 0 -9 9 -6 23 5 19 2 22 -23 23 -16 1 -32 -1 -34 -4z m-56
-62 c0 -5 -7 -7 -15 -4 -8 4 -15 8 -15 10 0 2 7 4 15 4 8 0 15 -4 15 -10z m30
-145 c0 -9 -40 -45 -50 -45 -16 0 -12 22 8 36 17 13 42 19 42 9z m350 -15 c0
-5 -7 -7 -15 -4 -8 4 -15 8 -15 10 0 2 7 4 15 4 8 0 15 -4 15 -10z m-315 -10
c-3 -5 -1 -10 4 -10 6 0 11 -4 11 -9 0 -4 -13 -8 -30 -7 -16 1 -30 3 -30 6 0
4 28 21 48 29 2 0 0 -3 -3 -9z m-75 -45 c0 -8 -4 -15 -10 -15 -5 0 -10 7 -10
15 0 8 5 15 10 15 6 0 10 -7 10 -15z m5 -45 c3 -5 1 -10 -4 -10 -6 0 -11 5
-11 10 0 6 2 10 4 10 3 0 8 -4 11 -10z m65 -21 c0 -18 -2 -19 -15 -9 -15 12
-12 30 6 30 5 0 9 -10 9 -21z m370 1 c0 -5 -2 -10 -4 -10 -3 0 -8 5 -11 10 -3
6 -1 10 4 10 6 0 11 -4 11 -10z m-77 -95 c-3 -9 -8 -14 -10 -11 -3 3 -2 9 2
15 9 16 15 13 8 -4z m396 -377 c-2 -13 1 -34 5 -47 5 -14 4 -27 -3 -34 -6 -6
-11 -19 -11 -28 0 -10 -5 -21 -10 -24 -7 -4 -8 3 -4 22 4 15 11 30 16 31 11 5
10 32 -2 32 -11 0 -13 30 -4 54 9 23 16 20 13 -6z m48 -75 c-3 -10 -5 -2 -5
17 0 19 2 27 5 18 2 -10 2 -26 0 -35z m20 -20 c-3 -10 -5 -4 -5 12 0 17 2 24
5 18 2 -7 2 -21 0 -30z m-20 -35 c-3 -8 -6 -5 -6 6 -1 11 2 17 5 13 3 -3 4
-12 1 -19z m430 -100 c-3 -7 -5 -2 -5 12 0 14 2 19 5 13 2 -7 2 -19 0 -25z"/>
<path d="M6725 10771 c15 -30 22 -57 18 -68 -6 -15 -5 -16 9 -3 14 13 13 20
-10 67 -15 29 -30 53 -34 53 -5 0 3 -22 17 -49z"/>
<path d="M6435 10800 c3 -5 8 -10 11 -10 2 0 4 5 4 10 0 6 -5 10 -11 10 -5 0
-7 -4 -4 -10z"/>
<path d="M7188 10767 c-3 -19 -2 -25 4 -19 6 6 8 18 6 28 -3 14 -5 12 -10 -9z"/>
<path d="M6420 10756 c19 -13 39 -22 43 -19 5 3 -8 13 -27 24 -50 26 -57 24
-16 -5z"/>
<path d="M6360 10726 c0 -2 9 -6 20 -9 11 -3 18 -1 14 4 -5 9 -34 13 -34 5z"/>
<path d="M7161 10632 c-12 -53 -29 -116 -37 -140 -8 -23 -14 -55 -13 -70 0
-20 5 -13 19 28 22 67 65 268 58 275 -2 2 -14 -39 -27 -93z"/>
<path d="M4185 10710 c4 -6 11 -8 16 -5 14 9 11 15 -7 15 -8 0 -12 -5 -9 -10z"/>
<path d="M5071 10693 c0 -5 4 -17 9 -28 8 -18 9 -17 9 8 1 15 -3 27 -9 27 -5
0 -10 -3 -9 -7z"/>
<path d="M6770 10689 c0 -9 7 -22 15 -29 19 -16 19 0 0 26 -12 16 -14 16 -15
3z"/>
<path d="M6470 10660 c0 -5 5 -10 11 -10 5 0 7 5 4 10 -3 6 -8 10 -11 10 -2 0
-4 -4 -4 -10z"/>
<path d="M6743 10626 c-10 -11 -9 -15 2 -20 8 -3 29 -31 47 -62 17 -32 34 -52
36 -46 2 6 -5 24 -16 39 -21 31 -36 64 -34 75 1 4 -6 4 -16 1 -15 -6 -15 -5
-3 10 16 20 1 22 -16 3z"/>
<path d="M6676 10596 c3 -8 12 -17 20 -20 12 -4 12 -2 4 14 -12 23 -32 27 -24
6z"/>
<path d="M6805 10590 c-4 -6 -3 -16 3 -22 6 -6 12 -6 17 2 4 6 3 16 -3 22 -6
6 -12 6 -17 -2z"/>
<path d="M5640 10519 c0 -5 5 -7 10 -4 6 3 10 8 10 11 0 2 -4 4 -10 4 -5 0
-10 -5 -10 -11z"/>
<path d="M6892 10494 c-1 -17 -4 -47 -7 -65 l-5 -34 11 34 c5 18 8 47 6 65
l-4 31 -1 -31z"/>
<path d="M5231 10464 c0 -11 3 -14 6 -6 3 7 2 16 -1 19 -3 4 -6 -2 -5 -13z"/>
<path d="M6830 10466 c0 -8 5 -18 10 -21 6 -3 10 1 10 9 0 8 -4 18 -10 21 -5
3 -10 -1 -10 -9z"/>
<path d="M5201 10454 c0 -11 3 -14 6 -6 3 7 2 16 -1 19 -3 4 -6 -2 -5 -13z"/>
<path d="M5170 10425 c0 -8 5 -15 10 -15 6 0 10 7 10 15 0 8 -4 15 -10 15 -5
0 -10 -7 -10 -15z"/>
<path d="M5135 10420 c3 -5 8 -10 11 -10 2 0 4 5 4 10 0 6 -5 10 -11 10 -5 0
-7 -4 -4 -10z"/>
<path d="M3460 10413 c-30 -11 -40 -37 -40 -102 0 -36 4 -72 9 -79 8 -14 59
-12 129 3 38 9 41 30 15 97 -28 75 -62 99 -113 81z"/>
<path d="M6790 10395 c0 -5 5 -17 10 -25 5 -8 10 -10 10 -5 0 6 -5 17 -10 25
-5 8 -10 11 -10 5z"/>
<path d="M7092 10340 c0 -14 2 -19 5 -12 2 6 2 18 0 25 -3 6 -5 1 -5 -13z"/>
<path d="M7066 10243 c-3 -10 -9 -24 -12 -30 -3 -7 -1 -13 4 -13 5 0 13 12 16
26 8 30 2 44 -8 17z"/>
<path d="M3295 10188 c9 -16 24 -28 33 -28 8 0 13 1 11 3 -2 1 -17 13 -33 27
l-29 25 18 -27z"/>
<path d="M3930 10131 c0 -5 11 -18 25 -29 14 -11 25 -27 25 -36 0 -9 5 -16 11
-16 5 0 7 -4 4 -10 -9 -14 41 -114 74 -149 32 -34 73 -40 105 -16 55 41 -18
196 -116 246 -38 19 -128 26 -128 10z"/>
<path d="M7037 10133 c-4 -3 -7 -16 -7 -28 0 -11 -4 -25 -9 -30 -5 -6 -20 -50
-34 -100 -14 -49 -38 -128 -52 -175 -15 -47 -35 -114 -46 -150 -11 -36 -26
-87 -35 -115 -8 -27 -22 -77 -31 -110 -9 -33 -23 -66 -30 -73 -7 -7 -13 -24
-13 -37 0 -13 -4 -27 -10 -30 -5 -3 -10 -13 -10 -21 0 -25 -25 -45 -39 -31 -8
8 -11 5 -11 -14 0 -17 -8 -29 -22 -36 -15 -7 -22 -19 -23 -39 0 -19 -5 -28
-14 -26 -7 2 -21 -4 -30 -12 -13 -12 -25 -13 -56 -6 -32 8 -42 6 -52 -6 -9
-12 -9 -21 -1 -34 9 -14 7 -24 -13 -47 -22 -27 -29 -30 -82 -29 -37 1 -61 -4
-66 -12 -4 -7 -15 -10 -25 -6 -15 6 -17 3 -11 -15 8 -28 -4 -103 -16 -95 -5 3
-9 19 -9 35 0 18 -4 28 -10 24 -5 -3 -10 -15 -10 -26 0 -10 -4 -19 -10 -19 -5
0 -10 16 -10 35 0 19 -2 35 -4 35 -2 0 -17 -12 -33 -27 -27 -26 -34 -63 -12
-63 5 0 9 -7 9 -16 0 -11 -6 -13 -19 -9 -16 5 -20 0 -23 -22 -2 -19 -8 -27
-18 -24 -41 11 -54 6 -60 -24 -7 -33 -66 -99 -81 -89 -5 3 -9 -3 -9 -12 0 -16
-1 -16 -18 -1 -17 15 -19 15 -34 0 -21 -20 -48 -22 -338 -26 -168 -2 -255 -8
-305 -19 -66 -15 -36 -16 590 -17 l661 -1 13 38 c8 20 26 65 42 99 16 34 29
67 29 73 0 5 15 49 34 98 19 48 43 114 54 147 11 33 30 85 42 115 39 98 117
369 226 780 18 69 37 140 43 159 11 35 10 47 -2 34z m-437 -1078 c0 -8 -4 -15
-10 -15 -5 0 -10 7 -10 15 0 8 5 15 10 15 6 0 10 -7 10 -15z m60 -25 c0 -5 -2
-10 -4 -10 -3 0 -8 5 -11 10 -3 6 -1 10 4 10 6 0 11 -4 11 -10z"/>
<path d="M3903 10123 c-18 -7 -16 -33 2 -33 8 0 15 9 15 20 0 11 -1 20 -2 19
-2 0 -9 -3 -15 -6z"/>
<path d="M5750 10072 c0 -5 7 -15 15 -22 8 -7 15 -8 15 -2 0 5 -7 15 -15 22
-8 7 -15 8 -15 2z"/>
<path d="M5770 9949 c0 -5 5 -7 10 -4 6 3 10 8 10 11 0 2 -4 4 -10 4 -5 0 -10
-5 -10 -11z"/>
<path d="M6677 9746 c-6 -16 2 -28 14 -20 12 7 11 34 0 34 -5 0 -11 -6 -14
-14z"/>
<path d="M3446 9724 c-8 -22 -9 -21 17 -27 21 -6 21 -6 3 8 -11 8 -14 15 -8
15 7 0 12 5 12 10 0 16 -17 12 -24 -6z"/>
<path d="M3510 9714 c0 -23 3 -25 24 -20 15 4 26 1 29 -7 3 -6 6 -2 6 11 1 16
-5 22 -19 22 -11 0 -20 5 -20 10 0 6 -4 10 -10 10 -5 0 -10 -12 -10 -26z"/>
<path d="M3008 9713 c7 -3 16 -2 19 1 4 3 -2 6 -13 5 -11 0 -14 -3 -6 -6z"/>
<path d="M4140 9670 c0 -5 5 -10 10 -10 6 0 10 5 10 10 0 6 -4 10 -10 10 -5 0
-10 -4 -10 -10z"/>
<path d="M4220 9640 c8 -5 20 -10 25 -10 6 0 3 5 -5 10 -8 5 -19 10 -25 10 -5
0 -3 -5 5 -10z"/>
<path d="M2847 9600 c-9 -11 -17 -33 -17 -48 -1 -26 -1 -26 -18 9 -16 34 -42
43 -42 13 0 -8 -4 -14 -10 -14 -5 0 -7 6 -5 13 3 6 1 18 -4 26 -7 10 -13 11
-31 1 -44 -24 -80 -30 -80 -14 0 11 -4 12 -19 4 -12 -6 -22 -6 -25 -1 -4 5
-31 9 -61 8 -31 -1 -55 2 -55 8 0 6 -4 4 -9 -4 -6 -9 -18 -12 -32 -8 -23 6
-84 -17 -95 -35 -9 -14 7 -26 41 -31 17 -2 30 -9 30 -16 0 -7 15 -19 33 -26
17 -8 32 -10 32 -5 0 13 56 13 80 0 16 -8 18 -7 14 4 -3 8 -1 17 5 21 6 3 11
-2 12 -12 0 -10 3 -13 6 -6 3 10 10 10 24 2 11 -5 23 -8 27 -5 5 3 27 -1 50
-7 41 -12 65 -27 44 -27 -30 0 -7 -18 38 -29 l51 -13 -7 -44 c-7 -46 6 -60 25
-26 8 15 11 14 20 -10 6 -16 18 -28 27 -28 10 0 14 -6 11 -14 -4 -10 3 -13 26
-12 18 0 35 4 38 9 3 4 11 -3 18 -17 19 -34 57 -48 129 -47 l63 1 -21 -22
c-18 -19 -50 -74 -50 -85 0 -1 5 -3 10 -3 6 0 10 7 10 15 0 8 5 15 10 15 6 0
10 5 10 11 0 15 41 48 60 49 12 0 12 -2 2 -9 -7 -4 -15 -28 -17 -52 -2 -24 -1
-38 2 -31 6 14 43 16 43 2 0 -5 15 -10 33 -10 22 0 28 -3 18 -9 -17 -11 1 -23
23 -15 9 3 16 1 16 -5 0 -6 7 -11 15 -11 8 0 15 -5 15 -11 0 -5 5 -7 10 -4 6
3 14 -5 20 -19 6 -17 17 -26 32 -26 29 -1 83 -39 55 -40 -10 0 -15 -4 -12 -10
3 -5 15 -10 26 -10 10 0 19 -4 19 -10 0 -5 9 -10 19 -10 11 0 23 -4 26 -10 3
-5 18 -10 31 -10 14 0 33 -9 42 -20 10 -12 30 -22 46 -24 16 -2 35 -10 41 -20
7 -9 21 -16 32 -16 11 0 25 -11 31 -25 12 -25 32 -34 32 -14 0 5 5 7 10 4 6
-3 9 -29 7 -56 -2 -35 2 -54 12 -62 12 -10 14 -9 9 5 -4 10 -1 19 9 22 24 10
27 0 10 -33 -9 -17 -11 -31 -6 -31 5 0 9 -7 9 -15 0 -18 17 -20 22 -3 3 8 12
5 28 -10 13 -12 28 -22 33 -22 5 0 21 -8 35 -18 15 -10 41 -19 57 -20 17 -1
32 -7 33 -12 2 -6 17 -10 32 -10 16 0 32 -4 35 -10 14 -22 35 -10 35 20 0 17
-4 30 -9 30 -5 0 -13 9 -16 20 -3 11 -13 20 -21 20 -8 0 -14 6 -14 13 0 7 -13
26 -30 42 -16 16 -30 34 -30 40 0 6 -9 18 -20 28 -11 9 -20 24 -20 32 0 18
-16 20 -23 3 -3 -8 -9 -1 -15 14 -8 18 -16 26 -26 22 -12 -4 -15 3 -14 36 0
22 -2 44 -6 47 -3 4 -6 -7 -6 -23 0 -42 -13 -59 -29 -40 -7 8 -10 20 -6 26 3
5 0 10 -7 10 -8 0 -23 7 -34 15 -18 14 -18 15 11 39 17 14 25 25 18 26 -7 0
-10 7 -6 17 4 11 3 14 -5 9 -7 -4 -12 -16 -12 -27 0 -10 -4 -19 -8 -19 -17 0
-32 25 -32 55 0 17 5 36 12 43 8 8 9 12 1 12 -6 0 -13 -4 -15 -9 -1 -4 -13
-11 -24 -15 -19 -6 -21 -3 -16 19 2 14 8 25 13 25 5 0 9 7 9 15 0 18 -16 20
-23 3 -4 -10 -8 -9 -16 2 -9 13 -11 13 -11 -2 0 -10 -6 -18 -14 -18 -21 0 -30
38 -14 57 7 9 8 14 2 10 -23 -13 -75 5 -85 29 -5 14 -17 24 -28 24 -10 0 -24
7 -32 16 -7 9 -22 14 -36 11 -18 -3 -35 6 -64 34 -21 20 -39 41 -39 46 0 4
-15 14 -32 22 -18 7 -45 27 -60 43 -26 28 -28 29 -45 13 -16 -16 -17 -16 -30
1 -7 10 -13 25 -13 34 0 23 -20 40 -46 40 -13 0 -31 12 -42 28 -15 20 -24 24
-32 16 -16 -16 -55 -6 -81 22 -12 13 -28 24 -35 24 -7 0 -17 6 -21 13 -11 16
-54 40 -60 33 -4 -3 -11 2 -18 10 -9 14 -16 14 -33 5 -22 -12 -28 -3 -23 37 2
17 -2 15 -22 -8z"/>
<path d="M3550 9420 c0 -5 7 -10 15 -10 8 0 15 5 15 10 0 6 -7 10 -15 10 -8 0
-15 -4 -15 -10z"/>
<path d="M1269 9332 c-13 -25 -32 -56 -42 -68 -42 -49 -168 -174 -177 -174 -6
0 -10 -6 -10 -13 0 -7 -12 -20 -27 -29 -16 -10 -53 -41 -84 -70 -59 -57 -201
-168 -240 -188 -13 -7 -26 -16 -29 -20 -3 -3 -21 -13 -40 -22 -97 -44 -129
-58 -136 -58 -3 0 -15 -11 -26 -25 -10 -13 -37 -29 -60 -36 -23 -6 -79 -28
-125 -50 -46 -21 -87 -39 -92 -39 -5 0 -23 -13 -41 -30 -18 -16 -38 -30 -46
-30 -8 0 -14 -4 -14 -10 0 -5 -8 -10 -18 -10 -10 0 -28 -7 -40 -16 -21 -15
-22 -21 -22 -181 l0 -165 48 28 c26 15 56 33 67 39 41 22 105 68 105 75 0 4 8
10 18 14 9 3 39 22 67 41 27 19 66 38 85 41 19 4 41 11 47 17 10 7 13 4 13
-11 0 -12 8 -26 18 -31 16 -10 15 -11 -5 -17 -12 -3 -19 -12 -17 -19 5 -12
-62 -95 -77 -95 -4 0 -22 -14 -41 -31 -54 -50 -62 -56 -86 -63 -14 -5 -21 -14
-20 -24 2 -12 -5 -18 -22 -20 -51 -5 -116 -24 -157 -45 l-43 -22 0 -63 c0 -60
1 -64 40 -99 22 -21 40 -41 40 -46 0 -13 82 -120 107 -140 13 -11 33 -38 45
-60 11 -23 32 -60 46 -82 14 -22 25 -42 24 -45 0 -3 6 -12 14 -21 8 -9 11 -19
7 -22 -3 -4 2 -7 11 -7 11 0 16 -5 13 -14 -3 -7 17 -37 45 -67 27 -30 58 -70
68 -89 37 -71 90 -98 192 -100 39 0 50 13 168 195 19 30 92 139 161 242 149
222 199 299 199 308 0 4 23 40 50 81 28 41 50 79 50 84 0 6 4 10 9 10 5 0 13
10 17 23 4 12 10 24 14 27 8 5 41 61 90 150 16 30 46 82 65 115 20 33 41 70
47 82 13 26 9 42 -56 230 -67 191 -104 347 -117 481 -11 124 -24 186 -43 214
-11 15 -15 11 -37 -30z m-689 -947 c-13 -14 -32 -25 -42 -25 -10 0 -18 -5 -18
-11 0 -8 -5 -8 -15 1 -17 14 -9 34 10 26 8 -3 17 4 20 15 5 13 15 19 37 19
l31 0 -23 -25z m-160 -384 c0 -11 5 -23 10 -26 6 -3 10 -15 10 -26 0 -11 -4
-17 -10 -14 -5 3 -11 1 -11 -4 -3 -20 -5 -26 -14 -43 -13 -21 -109 -65 -160
-73 -22 -3 -57 -8 -77 -11 -21 -4 -38 -10 -38 -15 0 -6 -7 -6 -18 0 -14 7 -17
18 -14 44 3 29 0 35 -20 41 l-23 6 23 19 c12 11 22 24 22 29 0 5 14 15 30 22
17 7 30 16 30 20 0 5 26 11 58 15 31 4 73 13 92 20 19 7 52 13 73 14 30 1 37
-2 37 -18z"/>
<path d="M3753 9259 c3 -9 0 -22 -6 -28 -8 -8 -8 -11 0 -11 16 0 23 25 11 41
-8 11 -9 11 -5 -2z"/>
<path d="M3670 9145 c0 -14 4 -25 9 -25 4 0 6 11 3 25 -2 14 -6 25 -8 25 -2 0
-4 -11 -4 -25z"/>
<path d="M3232 9066 c7 -8 15 -12 17 -11 5 6 -10 25 -20 25 -5 0 -4 -6 3 -14z"/>
<path d="M3826 9067 c3 -10 9 -15 12 -12 3 3 0 11 -7 18 -10 9 -11 8 -5 -6z"/>
<path d="M3320 9040 c0 -5 7 -7 15 -4 8 4 15 8 15 10 0 2 -7 4 -15 4 -8 0 -15
-4 -15 -10z"/>
<path d="M6316 9021 c-5 -13 -4 -27 3 -34 17 -17 24 -1 14 30 l-10 28 -7 -24z"/>
<path d="M3897 8974 c3 -7 9 -14 14 -14 14 0 10 17 -5 23 -10 4 -13 1 -9 -9z"/>
<path d="M3927 8909 c4 -13 8 -18 11 -10 2 7 -1 18 -6 23 -8 8 -9 4 -5 -13z"/>
<path d="M4071 8694 c0 -11 3 -14 6 -6 3 7 2 16 -1 19 -3 4 -6 -2 -5 -13z"/>
<path d="M2976 8672 c-2 -4 -1 -14 5 -22 7 -12 9 -10 9 8 0 23 -5 28 -14 14z"/>
<path d="M5185 8557 c-11 -6 -26 -12 -34 -13 -8 -2 -17 -6 -20 -11 -3 -4 -19
-9 -36 -11 -16 -2 -50 -10 -74 -18 -24 -8 -50 -13 -57 -10 -7 3 -16 1 -19 -4
-3 -5 -42 -9 -88 -9 -121 -1 -350 -16 -417 -27 -63 -11 -162 -5 -186 11 -26
17 -38 19 -29 6 3 -6 -20 -9 -56 -8 -42 1 -64 -2 -66 -10 -3 -7 -11 -13 -19
-13 -8 0 -14 -4 -14 -10 0 -5 -6 -10 -13 -10 -27 0 -77 -76 -76 -115 l1 -30 7
31 c11 45 41 82 76 94 18 6 97 9 185 8 203 -4 960 13 964 21 7 13 -7 91 -15
85 -12 -7 -11 3 2 28 14 25 9 29 -16 15z"/>
<path d="M5151 8393 c0 -11 3 -13 6 -5 10 25 24 11 19 -20 -3 -18 -8 -53 -11
-77 -5 -47 -19 -71 -32 -56 -5 4 -2 10 5 12 7 3 12 22 12 46 0 27 -3 38 -10
31 -12 -12 -15 -99 -5 -136 5 -19 4 -28 -5 -28 -7 0 -9 8 -5 20 4 11 2 20 -4
20 -14 0 -14 -33 0 -47 14 -14 7 -59 -9 -55 -6 1 -12 -2 -12 -8 0 -5 7 -10 15
-10 18 0 12 -35 -15 -90 -16 -31 -16 -37 -3 -49 12 -11 13 -15 1 -22 -10 -7
-10 -9 3 -9 16 0 19 15 46 200 2 19 13 69 23 110 11 42 22 101 26 133 7 57 7
57 -20 57 -18 0 -26 -5 -25 -17z"/>
<path d="M4234 8373 c4 -9 -5 -11 -34 -8 -24 3 -40 1 -40 -5 0 -5 9 -10 20
-10 31 0 24 -20 -7 -21 -25 0 -26 -1 -8 -9 17 -7 15 -9 -12 -9 -34 -1 -47 -20
-15 -22 11 0 7 -4 -10 -11 -29 -10 -38 -28 -15 -28 9 0 8 -3 -2 -9 -11 -7 -11
-9 0 -14 10 -4 8 -9 -9 -22 -13 -10 -21 -23 -18 -32 3 -8 1 -11 -4 -8 -6 3
-10 -1 -10 -10 0 -9 4 -14 8 -11 4 2 8 -4 8 -15 0 -10 -3 -19 -7 -19 -11 0
-40 -61 -34 -70 3 -4 -2 -13 -10 -20 -8 -7 -12 -16 -9 -21 3 -5 1 -9 -4 -9
-17 0 -37 -136 -22 -145 5 -3 10 -11 10 -17 0 -7 -6 -6 -15 2 -12 10 -15 10
-15 -4 0 -9 6 -16 13 -16 7 0 31 -9 53 -20 35 -18 36 -19 9 -14 -16 4 -36 11
-42 17 -9 6 -13 6 -13 -2 0 -7 -7 -11 -16 -9 -10 2 -19 -2 -21 -8 -3 -8 7 -10
32 -7 21 3 35 0 35 -6 0 -6 -11 -11 -24 -11 -14 0 -28 -5 -32 -11 -4 -8 -9 -7
-15 2 -6 10 -9 8 -9 -9 0 -20 4 -22 45 -18 25 2 45 -1 45 -5 0 -8 -22 -13 -42
-10 -4 0 -5 -6 -2 -14 6 -14 -5 -19 -33 -16 -7 1 -13 -3 -13 -9 0 -5 9 -10 19
-10 11 0 22 -4 25 -9 3 -5 -15 -8 -40 -7 -40 1 -47 -2 -55 -22 -13 -34 -12
-35 17 -13 15 12 36 21 48 20 15 -1 11 -4 -11 -10 -18 -5 -33 -14 -33 -19 0
-5 6 -8 13 -6 42 14 64 15 64 3 0 -7 -15 -13 -35 -14 -36 -2 -72 -23 -39 -23
9 0 17 -4 17 -10 0 -6 18 -7 47 -3 30 4 44 3 40 -4 -4 -6 -27 -13 -53 -16 -25
-2 -51 -10 -57 -17 -9 -10 -8 -11 8 -7 55 16 98 19 91 8 -4 -6 -1 -11 6 -12 7
0 25 -2 40 -3 14 -1 24 2 22 6 -3 4 -14 8 -25 8 -25 0 -24 21 1 43 17 14 20
14 20 2 0 -8 -5 -15 -12 -15 -16 0 -1 -13 18 -16 9 -1 13 0 10 3 -3 3 -1 14 5
24 6 13 6 19 -1 19 -5 0 -10 7 -10 15 0 8 7 15 15 15 7 0 18 8 24 17 5 10 12
16 14 13 8 -8 -15 -114 -26 -121 -5 -4 -6 -12 -2 -19 4 -7 2 -16 -6 -21 -10
-6 -8 -9 8 -9 18 0 23 7 28 38 4 20 11 51 16 67 5 17 21 93 34 170 14 77 36
201 50 275 13 74 33 183 43 241 11 59 22 112 26 118 4 6 1 11 -8 11 -9 0 -16
5 -16 10 0 6 -14 9 -30 8 -20 -1 -29 -7 -26 -15z m50 -58 c-4 -8 -8 -15 -10
-15 -2 0 -4 7 -4 15 0 8 4 15 10 15 5 0 7 -7 4 -15z m-17 -97 c-3 -7 -5 -2 -5
12 0 14 2 19 5 13 2 -7 2 -19 0 -25z m-30 -170 c-3 -7 -5 -2 -5 12 0 14 2 19
5 13 2 -7 2 -19 0 -25z m-14 -93 c-3 -9 -8 -14 -10 -11 -3 3 -2 9 2 15 9 16
15 13 8 -4z m-24 -89 c-9 -8 -10 -7 -5 7 3 10 7 26 7 35 1 9 4 6 6 -7 3 -13
-1 -28 -8 -35z m-76 -93 c-7 -2 -19 -2 -25 0 -7 3 -2 5 12 5 14 0 19 -2 13 -5z
m-8 -32 c-8 -14 -45 -14 -45 0 0 6 7 9 15 6 8 -4 17 -2 21 4 3 6 8 8 11 5 3
-2 2 -9 -2 -15z m62 -3 c-3 -8 -6 -5 -6 6 -1 11 2 17 5 13 3 -3 4 -12 1 -19z
m-32 -18 c3 -5 2 -10 -4 -10 -5 0 -13 5 -16 10 -3 6 -2 10 4 10 5 0 13 -4 16
-10z m20 -37 c-5 -15 -7 -34 -6 -41 2 -10 -2 -10 -18 0 -26 16 -27 28 -3 28
11 0 7 5 -13 16 -42 22 -42 24 -1 17 26 -4 36 -2 36 7 0 7 3 11 6 7 4 -3 3
-19 -1 -34z m-80 7 c3 -6 -1 -7 -9 -4 -18 7 -21 14 -7 14 6 0 13 -4 16 -10z
m-55 -40 c0 -5 -4 -10 -10 -10 -5 0 -10 5 -10 10 0 6 5 10 10 10 6 0 10 -4 10
-10z m90 -30 c0 -5 -9 -10 -20 -10 -11 0 -20 5 -20 10 0 6 9 10 20 10 11 0 20
-4 20 -10z m-40 -40 c0 -5 -9 -10 -20 -10 -11 0 -20 5 -20 10 0 6 9 10 20 10
11 0 20 -4 20 -10z m-33 -26 c-3 -3 -12 -4 -19 -1 -8 3 -5 6 6 6 11 1 17 -2
13 -5z"/>
<path d="M3979 8088 c-1 -54 -9 -111 -19 -142 -6 -16 -10 -40 -10 -53 0 -13
-4 -22 -9 -19 -5 3 -9 0 -8 -7 1 -45 -4 -68 -15 -61 -8 5 -9 2 -5 -10 4 -9 3
-24 -2 -34 -19 -36 -43 -108 -47 -142 -7 -63 54 83 86 206 27 105 51 294 36
294 -3 0 -6 -15 -7 -32z"/>
<path d="M5080 8010 c0 -5 5 -10 11 -10 5 0 7 5 4 10 -3 6 -8 10 -11 10 -2 0
-4 -4 -4 -10z"/>
<path d="M5086 7849 c-3 -17 -6 -44 -6 -59 0 -19 -8 -33 -26 -45 -15 -9 -22
-20 -17 -24 5 -3 10 -17 10 -30 3 -45 20 -44 32 3 6 25 10 49 9 53 -1 5 1 19
5 33 12 50 16 100 8 100 -5 0 -11 -14 -15 -31z m-19 -161 c-3 -8 -6 -5 -6 6
-1 11 2 17 5 13 3 -3 4 -12 1 -19z"/>
<path d="M9809 7682 l-117 -36 14 -39 c27 -76 39 -202 27 -274 -7 -37 -10 -69
-8 -72 3 -2 11 2 20 9 17 14 88 55 125 72 14 6 49 22 78 35 l52 24 0 146 c0
197 4 195 -191 135z m-52 -294 c-3 -7 -5 -2 -5 12 0 14 2 19 5 13 2 -7 2 -19
0 -25z"/>
<path d="M3920 7664 c0 -8 5 -12 10 -9 6 4 8 11 5 16 -9 14 -15 11 -15 -7z"/>
<path d="M5024 7633 c-4 -15 -2 -34 5 -46 19 -29 5 -114 -20 -120 -21 -6 -27
-29 -6 -24 14 2 11 -59 -4 -83 -7 -11 -9 -6 -6 18 2 17 0 32 -5 32 -4 0 -8
-21 -8 -47 0 -35 3 -44 10 -33 9 13 10 13 10 0 0 -34 -13 -61 -26 -56 -11 4
-13 -3 -10 -29 3 -23 0 -35 -7 -35 -7 0 -6 -4 3 -10 27 -17 33 -4 56 150 9 52
21 125 29 161 13 66 10 149 -6 149 -5 0 -12 -12 -15 -27z"/>
<path d="M3851 7564 c0 -11 3 -14 6 -6 3 7 2 16 -1 19 -3 4 -6 -2 -5 -13z"/>
<path d="M3964 7484 c-18 -14 -18 -14 6 -3 31 14 36 19 24 19 -6 0 -19 -7 -30
-16z"/>
<path d="M3986 7471 c-18 -7 -18 -8 -3 -14 9 -3 17 -2 17 3 0 5 8 11 18 13 11
3 12 5 2 5 -8 0 -24 -3 -34 -7z"/>
<path d="M4020 7451 c24 -14 66 -25 55 -13 -5 5 -23 12 -40 16 -20 4 -25 3
-15 -3z"/>
<path d="M4090 7430 c0 -5 10 -10 23 -10 18 0 19 2 7 10 -19 13 -30 13 -30 0z"/>
<path d="M7620 7090 c-8 -6 -27 -8 -41 -5 -31 7 -121 -21 -132 -41 -4 -8 -18
-14 -31 -14 -29 0 -116 -62 -133 -95 -8 -14 -20 -25 -29 -25 -8 0 -44 -29 -79
-64 -70 -69 -166 -119 -295 -152 -115 -30 -422 -7 -710 52 -41 8 -232 48 -425
89 -192 41 -386 81 -430 90 l-79 16 -18 -23 c-10 -13 -27 -39 -37 -58 -11 -19
-28 -44 -40 -54 -12 -11 -21 -23 -21 -27 0 -4 -19 -27 -42 -52 -24 -24 -56
-61 -73 -81 -16 -20 -40 -48 -52 -63 -13 -14 -23 -29 -23 -34 0 -4 -7 -14 -15
-22 -8 -8 -47 -55 -86 -104 -40 -48 -89 -106 -111 -127 -21 -22 -38 -45 -38
-52 0 -6 -7 -14 -15 -18 -8 -3 -15 -13 -15 -21 0 -9 -4 -14 -9 -10 -6 3 -15
-4 -21 -15 -6 -12 -29 -38 -50 -58 -20 -20 -45 -49 -55 -64 -9 -15 -22 -25
-28 -21 -5 3 -7 1 -4 -5 4 -5 -11 -30 -33 -54 -22 -23 -40 -48 -40 -55 0 -7
-9 -17 -20 -23 -11 -6 -20 -16 -20 -23 0 -7 -11 -24 -23 -38 -13 -13 -36 -43
-51 -66 -15 -23 -34 -44 -42 -47 -8 -3 -14 -12 -14 -20 0 -8 -4 -16 -8 -18 -4
-1 -20 -25 -36 -51 -15 -26 -40 -62 -55 -80 -16 -18 -37 -48 -48 -68 -11 -21
-35 -52 -55 -70 -19 -19 -45 -50 -57 -69 -11 -19 -24 -34 -28 -32 -4 2 -14
-15 -23 -38 -9 -23 -20 -41 -25 -40 -5 1 -12 -7 -16 -17 -7 -17 -8 -17 -8 1
-1 17 -3 17 -24 -5 -30 -30 -43 -79 -25 -91 9 -6 6 -7 -9 -3 -13 3 -23 2 -23
-3 0 -5 -10 -14 -22 -20 -13 -6 -17 -11 -10 -11 7 -1 10 -6 7 -11 -4 -6 -11
-8 -16 -5 -5 4 -9 -3 -9 -14 0 -12 -7 -21 -15 -21 -8 0 -15 -4 -15 -10 0 -5
-11 -10 -24 -10 -14 0 -27 -4 -30 -9 -7 -11 22 -23 37 -14 17 10 262 4 340 -9
85 -14 176 -15 185 -2 4 5 19 17 35 27 15 10 27 24 27 32 0 8 7 15 15 15 8 0
12 6 10 13 -6 16 97 127 117 127 9 0 31 -18 49 -41 l32 -41 141 6 c78 3 152 7
166 7 14 1 57 -1 95 -4 39 -4 118 -9 176 -12 154 -7 209 -36 366 -192 123
-123 264 -228 321 -239 18 -4 35 -11 38 -15 3 -5 12 -9 21 -9 8 0 70 -27 137
-59 103 -51 163 -78 186 -86 3 -1 16 -6 30 -12 14 -5 50 -18 80 -28 199 -65
383 -174 548 -323 183 -166 213 -178 206 -86 -4 53 17 101 49 113 27 10 121
22 207 27 207 10 548 114 624 191 13 12 33 24 45 26 12 2 27 9 33 15 7 7 18
12 25 12 6 0 16 6 20 14 4 7 19 19 33 26 24 12 164 122 185 145 6 6 42 37 82
69 162 130 326 345 443 580 44 89 80 168 80 176 0 8 6 27 14 41 13 26 77 211
78 226 0 5 5 19 10 33 13 35 56 261 88 460 21 134 22 158 8 166 -7 5 -112 9
-234 10 -237 1 -285 9 -365 60 -112 70 -126 198 -35 321 49 68 90 100 166 136
60 27 60 27 -35 42 -22 4 -139 31 -260 60 -345 85 -451 100 -495 73 -16 -10
-24 -10 -40 0 -23 14 -109 16 -130 2z m1186 -1448 c-12 -12 -18 8 -10 35 l8
28 4 -28 c2 -16 1 -31 -2 -35z m-9 -79 c-4 -64 -35 -149 -67 -188 -7 -8 -9
-15 -6 -15 4 0 2 -9 -4 -20 -17 -32 -32 -24 -25 13 4 17 12 38 17 44 6 7 8 22
5 33 -3 11 -2 20 2 20 3 0 12 23 18 51 15 61 44 128 57 129 5 0 6 -30 3 -67z
m-4950 -395 c-3 -7 -5 -2 -5 12 0 14 2 19 5 13 2 -7 2 -19 0 -25z"/>
<path d="M979 5018 c5 -13 12 -23 17 -23 5 0 15 -4 22 -8 16 -11 15 1 -2 19
-11 11 -16 11 -19 1 -3 -6 -6 -2 -6 11 -1 12 -5 22 -11 22 -6 0 -6 -9 -1 -22z"/>
<path d="M1175 4890 c3 -5 8 -10 11 -10 2 0 4 5 4 10 0 6 -5 10 -11 10 -5 0
-7 -4 -4 -10z"/>
<path d="M6820 3540 c0 -23 34 -40 81 -40 36 0 37 12 3 39 -36 28 -84 28 -84
1z"/>
</g>
</svg>
