<?xml version="1.0" standalone="no"?>
<!DOCTYPE svg PUBLIC "-//W3C//DTD SVG 20010904//EN"
 "http://www.w3.org/TR/2001/REC-SVG-20010904/DTD/svg10.dtd">
<svg version="1.0" xmlns="http://www.w3.org/2000/svg"
 width="1000.000000pt" height="1500.000000pt" viewBox="0 0 1000.000000 1500.000000"
 preserveAspectRatio="xMidYMid meet">

<g transform="translate(0.000000,1500.000000) scale(0.100000,-0.100000)"
fill="#000000" stroke="none">
<path d="M678 14993 c6 -2 18 -2 25 0 6 3 1 5 -13 5 -14 0 -19 -2 -12 -5z"/>
<path d="M720 14997 c0 -13 114 -28 206 -28 100 0 146 8 125 20 -12 8 -331 15
-331 8z"/>
<path d="M1669 14963 c-55 -171 -159 -275 -347 -348 -37 -14 -88 -35 -114 -47
l-48 -21 1 -56 c0 -54 36 -161 39 -116 1 19 1 19 14 3 7 -10 20 -18 28 -18 32
0 67 -65 71 -132 3 -55 12 -69 22 -36 4 13 12 28 17 35 10 13 38 7 38 -8 0 -6
9 -22 20 -37 12 -15 36 -72 54 -125 19 -54 37 -101 40 -104 3 -4 6 -22 7 -42
0 -28 2 -31 8 -16 6 15 9 11 14 -22 4 -23 13 -48 21 -56 8 -7 20 -33 27 -55 7
-23 16 -42 21 -42 4 0 8 -19 8 -43 0 -24 5 -48 12 -55 12 -12 20 -41 22 -79 1
-11 4 -19 9 -16 4 2 7 -5 7 -16 0 -25 20 -71 32 -71 4 0 8 -9 8 -21 0 -11 -4
-17 -10 -14 -6 4 -10 -5 -10 -19 0 -15 6 -26 14 -26 12 0 22 -26 33 -90 2 -14
11 -50 19 -80 21 -78 29 -306 15 -410 -11 -77 -22 -142 -51 -310 -5 -30 -14
-93 -20 -140 -6 -46 -15 -89 -20 -95 -4 -5 -10 -32 -13 -60 -5 -45 -21 -110
-72 -296 -8 -31 -22 -70 -30 -85 -8 -16 -15 -35 -15 -42 0 -7 -11 -38 -25 -68
-14 -30 -25 -61 -25 -69 0 -8 -4 -15 -10 -15 -5 0 -10 -8 -10 -19 0 -10 -7
-24 -16 -31 -21 -18 -36 -48 -30 -59 3 -5 33 -2 66 6 49 13 63 13 75 3 9 -7
12 -16 8 -19 -15 -11 -79 -115 -104 -171 -59 -130 -87 -200 -78 -200 5 0 9 8
9 18 0 13 2 14 9 3 5 -8 14 -10 21 -6 8 5 11 4 6 -3 -3 -6 -1 -23 5 -39 14
-34 22 -155 10 -163 -13 -8 -25 -54 -12 -46 7 5 11 -4 11 -23 0 -17 -4 -31 -8
-31 -10 0 -38 -64 -47 -107 -7 -35 -19 -43 -29 -18 -4 11 -21 15 -61 15 -48 0
-55 -3 -55 -19 0 -11 -5 -23 -10 -26 -6 -3 -10 1 -10 10 0 9 -6 15 -12 12 -8
-2 -13 -23 -13 -53 0 -27 -4 -55 -8 -61 -5 -7 -6 -13 -2 -13 3 0 1 -9 -5 -19
-11 -21 -3 -54 11 -45 5 3 9 0 9 -6 0 -20 -21 -6 -38 25 -9 17 -20 32 -23 35
-4 3 -10 19 -13 37 -4 18 -18 48 -30 66 -20 30 -35 93 -41 175 -4 59 -32 45
-79 -40 -21 -38 -26 -58 -23 -103 3 -47 8 -60 37 -90 19 -19 39 -35 45 -35 12
0 95 -72 95 -84 0 -8 36 -60 63 -91 45 -50 107 -139 107 -151 0 -8 4 -14 9
-14 12 0 81 -106 81 -125 0 -13 -4 -13 -31 2 -17 10 -43 24 -58 32 -14 8 -57
41 -96 73 -94 79 -95 80 -95 73 0 -4 -24 14 -52 39 -29 25 -57 46 -62 46 -4 0
-23 12 -41 28 -18 15 -50 38 -70 52 -20 14 -44 33 -53 44 -10 10 -22 23 -28
29 -6 6 -9 19 -6 29 2 10 0 18 -5 18 -28 0 -60 47 -181 265 -24 44 -50 87 -58
96 -8 8 -14 18 -14 22 0 3 -16 33 -35 66 -19 32 -35 66 -35 74 0 8 -7 20 -16
28 -10 8 -14 22 -10 40 4 22 1 29 -14 34 -11 4 -17 12 -13 21 3 8 -1 14 -11
14 -9 0 -16 4 -16 8 0 5 -13 22 -30 38 -16 16 -30 37 -30 47 0 10 -5 15 -10
12 -6 -3 -10 1 -10 10 0 27 -40 97 -71 122 -16 14 -29 31 -29 39 0 8 -6 14
-12 14 -9 0 -8 4 2 10 14 9 7 14 -13 11 -4 -1 -7 4 -6 11 4 17 -36 100 -43 93
-3 -3 -8 6 -12 20 -4 14 -11 25 -16 25 -6 0 -10 8 -10 18 -1 19 -24 54 -32 47
-2 -3 -15 21 -27 53 -35 87 -46 107 -49 90 -7 -37 198 -476 280 -600 45 -67
108 -202 108 -230 0 -10 9 -44 20 -75 11 -32 26 -96 34 -143 30 -171 70 -335
117 -480 11 -36 29 -99 39 -140 10 -41 32 -119 49 -174 17 -54 31 -109 31
-123 0 -34 76 -336 136 -538 13 -44 30 -109 39 -145 8 -36 20 -76 25 -88 14
-31 76 -262 85 -315 3 -15 12 -59 20 -98 19 -90 19 -267 0 -338 -7 -29 -14
-86 -14 -125 0 -67 -4 -105 -31 -366 -6 -58 -12 -132 -15 -165 -2 -33 -8 -82
-15 -110 -19 -87 -31 -149 -34 -185 -5 -45 -51 -185 -71 -217 -19 -28 -13 -73
10 -73 8 0 29 8 47 18 18 10 53 24 78 31 25 7 50 16 55 21 14 10 220 119 270
142 22 10 47 23 55 28 20 13 61 31 80 35 8 2 41 15 72 29 31 14 61 26 66 26
16 0 23 -31 11 -46 -8 -9 -6 -22 6 -48 11 -23 15 -46 11 -64 -17 -66 -16 -81
3 -137 12 -33 21 -72 21 -87 0 -15 4 -29 9 -32 5 -3 8 -42 8 -86 -1 -45 2 -82
8 -85 6 -3 5 -7 -3 -11 -6 -3 -12 -19 -12 -35 0 -16 -6 -29 -12 -30 -7 0 -3
-4 10 -9 12 -6 66 -12 120 -16 53 -3 118 -12 143 -20 25 -8 82 -16 127 -19 45
-2 87 -7 93 -10 16 -10 120 -7 174 5 27 6 63 22 80 35 36 27 94 45 147 45 20
0 39 4 42 9 3 5 22 12 41 15 41 8 42 13 15 58 -55 94 -174 389 -201 503 -11
44 -29 116 -39 160 -59 244 -65 568 -15 805 33 152 133 414 211 550 58 100
176 275 217 319 43 47 67 89 67 118 0 32 7 44 35 59 11 6 31 32 45 58 14 26
46 67 71 90 26 24 50 49 55 57 5 8 27 28 49 44 47 35 82 73 90 98 4 10 -7 40
-28 75 -99 164 -185 367 -262 622 -14 49 -36 99 -93 220 -9 19 -19 37 -22 40
-6 6 -41 78 -70 145 -12 28 -28 64 -35 80 -23 50 -77 188 -87 225 -6 19 -13
37 -17 40 -3 3 -21 50 -39 105 -19 55 -38 109 -42 120 -5 11 -25 71 -44 132
-20 62 -42 129 -50 150 -8 21 -17 47 -21 58 -15 39 -53 141 -79 210 -15 39
-47 133 -73 210 -25 77 -63 187 -84 245 -22 58 -39 114 -39 123 0 9 -3 17 -8
17 -4 0 -18 30 -30 68 -13 37 -27 76 -32 87 -4 11 -20 52 -36 90 -16 39 -29
75 -30 80 -1 6 -11 31 -22 55 -11 25 -30 74 -42 110 -12 36 -25 74 -30 85 -41
107 -52 140 -69 205 -10 41 -27 100 -36 130 -9 30 -19 93 -21 140 -5 125 -9
141 -53 240 -23 49 -41 94 -41 100 0 5 -21 53 -46 105 -25 53 -43 99 -40 102
3 3 0 15 -7 27 -14 26 -36 82 -47 121 -4 17 -11 37 -15 47 -5 14 -1 16 31 13
20 -2 40 -9 44 -15 6 -9 13 -9 27 -1 16 8 24 6 38 -9 10 -11 25 -20 34 -20 9
0 41 -9 71 -20 30 -11 56 -20 57 -20 2 0 3 -8 3 -18 0 -26 50 -43 143 -48 181
-10 202 -15 219 -55 7 -16 16 -29 20 -29 5 0 8 -9 8 -20 0 -11 5 -20 10 -20 6
0 10 14 10 31 0 33 30 74 38 51 2 -6 9 -12 16 -12 6 0 19 -9 29 -20 10 -12 23
-18 29 -14 23 15 108 1 108 -17 0 -5 5 -9 10 -9 6 0 10 8 10 17 0 9 3 13 7 10
3 -4 13 -1 21 5 8 7 19 13 26 14 6 2 22 6 36 9 38 10 120 5 141 -8 10 -6 19
-20 19 -29 0 -10 7 -18 15 -18 8 0 15 -4 15 -10 0 -5 9 -10 20 -10 11 0 29 -8
41 -17 33 -28 71 -100 65 -121 -9 -27 3 -52 25 -52 12 0 19 7 19 19 0 11 6 22
13 25 9 5 9 7 -1 12 -8 4 -10 10 -4 17 5 7 12 37 16 66 5 37 14 59 26 68 14
10 17 21 13 48 -3 22 -2 35 5 35 7 0 10 26 9 71 -1 47 3 73 11 78 7 4 15 36
18 70 5 58 2 67 -32 128 -20 36 -38 80 -39 98 -2 18 -12 42 -24 54 -11 11 -25
38 -31 60 -6 21 -17 52 -25 67 -8 15 -12 32 -9 36 3 5 -4 34 -16 64 l-22 54
-553 0 -553 0 -13 -37z m650 -65 c12 -15 11 -18 -3 -18 -10 0 -16 8 -16 22 0
12 1 19 3 17 1 -2 9 -12 16 -21z m27 -105 c-10 -10 -19 5 -10 18 6 11 8 11 12
0 2 -7 1 -15 -2 -18z m39 -33 c-4 -18 0 -40 10 -59 19 -38 5 -41 -16 -3 -19
32 -36 96 -19 72 8 -12 10 -11 10 8 0 14 4 21 11 17 6 -4 7 -19 4 -35z m136
-203 c-10 -9 -11 -8 -5 6 3 10 9 15 12 12 3 -3 0 -11 -7 -18z m39 -47 c7 -17
10 -33 7 -37 -3 -3 -9 6 -13 21 -3 14 -10 26 -15 26 -5 0 -9 5 -9 10 0 21 18
9 30 -20z m180 -235 c0 -12 -19 -12 -23 0 -4 9 -1 12 9 8 7 -3 14 -7 14 -8z
m48 -35 c12 0 13 -3 5 -11 -8 -8 -17 -7 -35 6 -16 12 -18 16 -5 11 10 -3 26
-6 35 -6z m-68 -80 c0 -5 -2 -10 -4 -10 -3 0 -8 5 -11 10 -3 6 -1 10 4 10 6 0
11 -4 11 -10z m-886 -1687 c-10 -40 -14 -41 -14 -5 0 18 5 32 10 32 6 0 8 -11
4 -27z m6 -67 c0 -7 -9 -16 -20 -19 -22 -6 -23 -5 -14 17 8 20 34 21 34 2z
m-44 -171 c-4 -19 -11 -35 -16 -35 -5 0 -8 6 -6 13 3 6 7 25 11 41 9 41 19 24
11 -19z m132 14 c2 -13 -3 -15 -23 -12 -32 7 -34 36 -3 31 13 -2 24 -10 26
-19z m3 -88 c-9 -6 -10 -14 -5 -22 5 -8 9 -16 10 -19 0 -3 7 -21 16 -40 36
-80 48 -118 52 -175 3 -33 10 -61 16 -63 5 -2 7 -9 3 -15 -5 -7 -8 -42 -8 -78
0 -56 3 -66 16 -64 12 3 15 -2 12 -16 -3 -10 -13 -19 -22 -19 -12 0 -16 -8
-15 -27 1 -20 -7 -36 -30 -55 -17 -15 -25 -28 -18 -28 6 0 12 -9 12 -20 0 -15
-7 -20 -29 -20 -40 0 -62 10 -54 24 13 20 13 120 0 129 -9 7 -9 10 0 13 7 3 9
12 6 20 -3 9 2 14 13 15 17 1 17 2 2 6 -21 5 -21 4 -9 37 7 18 6 28 -4 36 -8
7 -12 17 -9 22 13 21 22 78 13 84 -12 7 -6 154 6 154 14 0 18 47 5 55 -13 8
-13 51 1 77 8 15 14 17 22 9 9 -9 8 -14 -2 -20z m-146 -103 c4 -43 11 -80 15
-83 9 -6 6 -57 -5 -76 -5 -8 -5 -11 0 -7 15 14 35 -12 25 -32 -5 -9 -7 -20 -3
-23 9 -10 14 -68 6 -81 -9 -14 -12 -28 -18 -96 -7 -96 -11 -114 -26 -119 -7
-2 -20 -12 -29 -22 -8 -10 -27 -21 -42 -25 -24 -5 -28 -3 -28 15 0 12 -7 24
-15 27 -18 7 -19 51 -4 126 21 102 61 263 70 280 5 9 9 40 10 68 1 28 6 53 11
56 4 3 8 26 8 52 0 72 17 32 25 -60z m-64 -578 c28 0 48 -4 45 -9 -3 -5 10
-21 30 -36 47 -36 77 -106 69 -160 -12 -73 -61 -157 -109 -188 -79 -50 -170
-31 -203 43 -27 62 -33 83 -33 112 0 39 37 142 59 162 52 48 62 56 71 56 6 0
11 12 11 28 1 16 3 20 6 10 3 -14 15 -18 54 -18z m239 -25 c0 -18 -5 -21 -30
-17 -45 6 -41 38 5 38 19 0 25 -5 25 -21z m237 -77 c-3 -8 -6 -5 -6 6 -1 11 2
17 5 13 3 -3 4 -12 1 -19z m-237 -10 c0 -13 -43 -6 -47 8 -2 7 6 10 22 7 14
-3 25 -10 25 -15z m10 -68 c0 -31 -4 -50 -11 -50 -8 0 -10 -18 -6 -57 6 -55
-4 -93 -23 -93 -6 0 -10 5 -10 11 0 5 4 8 9 5 5 -3 12 1 15 10 4 11 2 15 -8
11 -17 -7 -26 14 -25 56 l2 32 7 -35 c6 -27 8 -19 6 33 -2 42 -7 72 -15 77
-20 11 8 50 36 50 21 0 23 -5 23 -50z m248 8 c8 -18 19 -44 26 -58 8 -14 12
-30 10 -35 -3 -6 5 -21 17 -34 13 -13 19 -30 16 -42 -3 -12 2 -27 13 -37 23
-22 44 -94 29 -102 -6 -4 -4 -12 6 -20 8 -7 15 -23 15 -36 0 -12 5 -26 11 -30
6 -3 9 -15 6 -25 -3 -11 -1 -19 4 -19 17 0 9 -20 -8 -20 -17 -1 -16 -2 1 -15
10 -8 20 -24 21 -37 4 -38 5 -39 14 -33 6 3 15 -4 21 -15 8 -14 8 -20 0 -20
-8 0 -8 -6 0 -19 5 -11 11 -38 12 -60 1 -27 6 -41 15 -41 7 0 13 -8 13 -18 0
-10 5 -23 10 -28 6 -6 12 -27 13 -46 2 -23 12 -43 30 -60 15 -14 27 -33 27
-43 0 -10 5 -15 13 -12 18 7 37 -41 40 -96 1 -25 5 -43 8 -41 3 2 6 -15 7 -37
1 -22 6 -48 11 -58 7 -12 6 -22 -1 -29 -8 -8 -8 -15 -1 -24 8 -10 11 -63 3
-63 -2 0 -9 -35 -14 -66 -1 -14 -7 -32 -11 -39 -5 -8 -4 -11 1 -7 5 3 10 -19
11 -49 l2 -55 -32 3 c-29 3 -32 6 -35 41 -2 24 -8 37 -18 37 -8 0 -15 11 -16
28 0 15 -2 32 -3 37 -2 6 -3 20 -4 32 0 12 -7 28 -15 36 -8 8 -18 31 -21 51
-4 20 -11 36 -16 36 -5 0 -9 20 -9 45 0 25 -4 45 -10 45 -5 0 -10 9 -10 21 0
22 -18 43 -37 45 -29 2 -33 5 -33 23 0 11 -6 21 -12 24 -7 2 -10 8 -6 12 8 9
38 -18 38 -34 0 -6 5 -11 10 -11 6 0 10 7 10 15 0 8 -3 15 -7 15 -11 0 -33 50
-33 72 0 10 -4 18 -9 18 -13 0 -23 -64 -15 -95 5 -19 1 -30 -12 -40 -11 -8
-14 -14 -6 -15 7 0 12 -13 12 -29 0 -16 -6 -32 -12 -35 -10 -3 -8 -8 4 -19 26
-21 10 -72 -23 -72 -21 0 -24 5 -27 37 -2 24 -11 43 -24 52 -23 17 -39 83 -33
145 2 22 0 41 -4 41 -4 0 -7 17 -7 38 0 69 -16 317 -21 332 -3 8 -7 48 -8 89
-2 41 -9 95 -14 120 -16 69 -29 225 -19 232 5 3 13 33 19 67 10 53 14 62 33
62 15 0 25 -10 34 -32z m-575 -275 c-7 -2 -21 -2 -30 0 -10 3 -4 5 12 5 17 0
24 -2 18 -5z m22 -93 c4 -6 -5 -10 -19 -10 -14 0 -26 5 -26 10 0 6 9 10 19 10
11 0 23 -4 26 -10z m-215 -212 c0 -5 -7 -8 -15 -8 -17 0 -18 2 -9 25 5 13 8
14 15 3 5 -7 9 -16 9 -20z m487 0 c-3 -7 -5 -2 -5 12 0 14 2 19 5 13 2 -7 2
-19 0 -25z m-507 -33 c0 -8 9 -15 20 -15 17 0 19 -3 11 -17 -14 -27 -14 -37 1
-43 10 -3 12 -13 7 -30 l-7 -25 -1 24 c-1 16 -5 21 -16 17 -19 -7 -33 23 -16
34 10 5 9 9 -3 13 -17 7 -22 57 -6 57 6 0 10 -7 10 -15z m235 -54 c3 -6 1 -11
-4 -11 -6 0 -11 7 -11 15 0 8 -7 15 -15 15 -18 0 -19 7 -2 24 10 12 13 10 18
-9 4 -13 10 -28 14 -34z m-25 -42 c-7 -11 -14 -19 -16 -16 -7 7 7 37 17 37 6
0 5 -9 -1 -21z m-190 -19 c0 -5 -13 -10 -30 -10 -16 0 -30 5 -30 10 0 6 14 10
30 10 17 0 30 -4 30 -10z m-20 -39 c0 -4 -11 -6 -25 -3 -14 2 -25 6 -25 8 0 2
11 4 25 4 14 0 25 -4 25 -9z m-193 -53 c-3 -8 -6 -5 -6 6 -1 11 2 17 5 13 3
-3 4 -12 1 -19z m1493 -238 c0 -5 -2 -10 -4 -10 -3 0 -8 5 -11 10 -3 6 -1 10
4 10 6 0 11 -4 11 -10z m30 -40 c0 21 18 0 23 -27 4 -16 10 -46 14 -68 6 -31
13 -41 31 -43 12 -2 22 -8 22 -13 0 -6 -4 -8 -9 -4 -5 3 -12 1 -16 -4 -3 -5 3
-14 12 -20 15 -9 16 -12 4 -20 -9 -6 -22 -6 -32 0 -10 5 -27 9 -38 9 -15 0
-23 10 -31 43 -7 23 -19 57 -27 74 -13 26 -13 35 -3 48 7 8 9 22 6 31 -6 15
-4 15 19 0 14 -10 25 -12 25 -6z m70 -110 c0 -11 -4 -20 -10 -20 -5 0 -10 9
-10 20 0 11 5 20 10 20 6 0 10 -9 10 -20z m-660 -178 c36 -31 64 -97 81 -191
8 -46 7 -59 -11 -97 -30 -62 -76 -88 -146 -82 -68 6 -130 47 -161 109 -30 56
-29 90 3 158 57 121 158 165 234 103z"/>
<path d="M1987 11777 c-3 -8 -1 -20 4 -28 6 -10 9 -7 9 14 0 29 -5 35 -13 14z"/>
<path d="M1960 11600 c0 -5 5 -10 10 -10 6 0 10 5 10 10 0 6 -4 10 -10 10 -5
0 -10 -4 -10 -10z"/>
<path d="M2580 9900 c0 -5 5 -10 10 -10 6 0 10 5 10 10 0 6 -4 10 -10 10 -5 0
-10 -4 -10 -10z"/>
<path d="M2832 13900 c0 -14 2 -19 5 -12 2 6 2 18 0 25 -3 6 -5 1 -5 -13z"/>
<path d="M70 11780 c6 -11 13 -20 16 -20 2 0 0 9 -6 20 -6 11 -13 20 -16 20
-2 0 0 -9 6 -20z"/>
<path d="M1200 10790 c0 -23 4 -30 20 -30 13 0 20 -7 20 -20 0 -11 5 -20 10
-20 6 0 10 14 10 30 0 17 -4 30 -10 30 -5 0 -10 9 -10 20 0 13 -7 20 -20 20
-16 0 -20 -7 -20 -30z"/>
<path d="M780 10782 c0 -11 5 -24 10 -27 6 -3 10 -19 10 -36 0 -22 5 -29 20
-29 11 0 20 -4 20 -10 0 -13 37 -13 45 0 8 12 -2 79 -14 98 -4 8 -27 16 -50
19 -37 5 -41 3 -41 -15z m100 -92 c0 -5 -5 -10 -11 -10 -5 0 -7 5 -4 10 3 6 8
10 11 10 2 0 4 -4 4 -10z"/>
<path d="M4288 9913 c6 -2 18 -2 25 0 6 3 1 5 -13 5 -14 0 -19 -2 -12 -5z"/>
<path d="M4013 9885 c-102 -21 -161 -44 -147 -57 3 -3 22 -1 42 4 20 5 56 11
80 13 23 3 52 10 63 16 12 6 42 14 67 18 25 3 47 12 50 19 5 17 -24 15 -155
-13z"/>
<path d="M3615 9751 c-3 -6 -20 -11 -36 -11 -17 0 -40 -5 -52 -11 -28 -15
-116 -86 -145 -119 -56 -61 -71 -78 -109 -125 -53 -65 -98 -142 -133 -229 -16
-39 -35 -85 -44 -102 -14 -27 -40 -132 -66 -264 -20 -102 -1 -384 37 -560 27
-124 64 -254 79 -277 8 -12 14 -32 14 -43 0 -20 63 -184 79 -205 4 -5 18 -37
31 -70 13 -33 54 -124 92 -203 37 -79 68 -147 68 -153 0 -14 27 -11 44 6 8 8
19 15 24 15 5 0 15 7 22 15 7 8 16 13 20 10 5 -3 11 -1 15 5 3 5 14 10 25 10
10 0 20 7 24 15 3 8 12 15 19 15 8 0 27 11 43 25 16 14 34 25 40 25 6 0 19 10
30 21 l19 22 -35 -18 c-31 -16 -33 -16 -21 -1 12 14 11 16 -10 14 -16 -2 -24
3 -27 16 -3 14 0 17 11 13 10 -4 17 2 21 16 9 35 7 40 -14 34 -15 -4 -20 0
-20 14 0 10 -9 24 -20 31 -23 15 -26 28 -6 28 7 0 16 15 19 33 4 17 9 43 13
56 7 23 5 24 -26 18 -41 -9 -63 -26 -56 -44 4 -9 1 -11 -5 -7 -20 12 -84 12
-91 0 -5 -6 -8 -2 -8 12 0 20 -14 27 -42 23 -11 -1 -20 37 -13 58 7 23 -10 38
-19 16 -3 -8 -2 -35 3 -60 5 -24 6 -56 3 -70 -2 -14 0 -25 6 -25 6 0 13 10 15
23 4 20 4 19 6 -4 1 -21 -4 -28 -26 -32 -36 -7 -53 1 -54 27 -1 16 -2 17 -6 4
-5 -22 -23 -24 -23 -3 0 8 -4 15 -10 15 -5 0 -17 15 -26 33 -10 17 -23 37 -30
42 -7 6 -18 30 -24 54 -6 24 -20 53 -31 64 -11 12 -19 35 -19 55 0 18 -7 40
-15 48 -8 9 -15 29 -15 45 0 16 -4 29 -9 29 -18 0 -34 150 -21 199 9 36 30 39
30 5 0 -54 19 -9 24 56 2 36 7 73 11 83 4 9 3 17 -2 17 -4 0 -8 21 -8 48 0 73
-11 132 -36 187 -26 56 -52 203 -50 283 1 66 15 122 47 187 40 79 50 95 57 88
4 -3 7 0 7 7 0 19 88 119 124 141 17 10 29 22 27 26 -4 7 33 38 101 82 16 10
26 20 23 23 -3 2 7 11 23 19 34 18 43 27 61 62 8 15 18 27 23 27 5 0 6 5 3 10
-3 6 1 10 10 10 31 0 96 40 93 58 -4 20 -72 30 -83 13z m-145 -2011 c0 -11 -4
-20 -10 -20 -5 0 -10 9 -10 20 0 11 5 20 10 20 6 0 10 -9 10 -20z m40 0 c0 -5
-4 -10 -10 -10 -5 0 -10 5 -10 10 0 6 5 10 10 10 6 0 10 -4 10 -10z m90 -40
c0 -5 -18 -10 -40 -10 -22 0 -40 5 -40 10 0 6 18 10 40 10 22 0 40 -4 40 -10z
m13 -144 c3 3 10 3 16 -1 10 -6 -37 -55 -53 -55 -9 0 -7 65 1 74 4 4 13 0 19
-8 6 -9 14 -13 17 -10z m-63 -17 c0 -10 -4 -19 -10 -19 -5 0 -10 12 -10 26 0
14 4 23 10 19 6 -3 10 -15 10 -26z"/>
<path d="M5464 9556 c-16 -25 -39 -25 -57 -2 -5 6 -6 2 -2 -10 4 -17 -1 -25
-29 -38 -19 -9 -38 -21 -41 -26 -12 -20 27 -9 94 25 38 19 85 35 104 37 56 3
25 37 -35 38 -10 0 -25 -11 -34 -24z"/>
<path d="M5242 9522 c-35 -10 -31 -27 6 -30 22 -2 32 1 32 11 0 10 8 13 28 10
21 -4 24 -2 12 6 -16 12 -42 13 -78 3z"/>
<path d="M5771 9121 c-7 -5 -21 -6 -31 -4 -10 3 -45 -2 -77 -11 -65 -19 -72
-21 -163 -65 -36 -17 -73 -31 -83 -31 -10 0 -15 -5 -12 -11 4 -6 13 -8 21 -5
8 3 26 0 40 -6 20 -9 30 -9 45 1 62 38 141 71 187 77 29 4 60 13 68 21 15 15
42 11 79 -11 37 -23 116 -48 130 -42 28 10 15 34 -27 49 -60 21 -145 47 -155
47 -4 0 -14 -4 -22 -9z"/>
<path d="M4040 8867 c-19 -6 -38 -15 -41 -20 -3 -5 -9 -8 -13 -8 -29 4 -46 -1
-40 -11 4 -6 -1 -17 -11 -24 -26 -19 -15 -25 25 -14 26 7 31 7 22 -2 -12 -12
-127 -59 -149 -60 -7 -1 -13 -8 -13 -15 0 -8 -6 -13 -12 -10 -7 2 -12 12 -10
22 2 10 -1 14 -8 10 -6 -4 -8 -15 -5 -26 4 -11 2 -19 -4 -19 -6 0 -11 6 -11
13 0 7 -7 4 -15 -7 -8 -11 -26 -32 -40 -48 -14 -15 -25 -35 -25 -43 0 -8 -4
-15 -9 -15 -6 0 -18 -13 -27 -30 -14 -23 -21 -27 -32 -18 -7 6 -24 13 -38 14
-19 2 -24 -2 -24 -19 0 -12 -9 -40 -20 -62 -17 -34 -20 -36 -16 -13 1 15 -1
25 -6 22 -5 -3 -6 -30 -3 -59 6 -43 4 -53 -10 -59 -9 -3 -16 -15 -15 -28 1
-13 1 -27 0 -33 -1 -5 -3 -14 -4 -20 -1 -5 -10 -27 -21 -48 -19 -37 -19 -40
-2 -86 9 -27 17 -56 17 -65 0 -9 7 -16 15 -16 11 0 15 11 16 38 l1 37 19 -40
c12 -24 18 -53 15 -71 -6 -47 10 -64 18 -18 3 22 7 46 9 54 2 9 15 37 30 63
16 29 29 72 33 109 4 34 15 76 26 94 11 18 16 39 11 49 -4 12 -3 16 5 11 6 -3
36 18 68 49 32 30 53 55 48 55 -18 0 -73 -39 -89 -64 -9 -13 -23 -23 -32 -22
-19 3 -31 26 -14 26 6 0 11 7 11 16 0 8 7 22 15 30 8 9 15 11 15 5 0 -5 -4
-13 -10 -16 -5 -3 -10 -14 -10 -23 1 -12 10 -5 31 20 17 21 36 35 42 31 7 -4
8 0 4 11 -4 10 -3 15 3 11 5 -3 19 4 30 15 28 28 86 60 110 60 11 0 19 3 18 8
-1 4 7 22 18 39 18 32 67 63 97 63 18 0 40 26 44 53 5 30 9 32 60 32 l44 0
-31 13 c-17 7 -33 19 -36 27 -4 8 -12 15 -20 15 -17 0 -18 17 -1 23 23 10 -17
5 -53 -6z m10 -27 c0 -5 -9 -10 -21 -10 -11 0 -29 -5 -41 -11 -11 -6 -22 -8
-25 -6 -6 7 48 35 70 36 9 1 17 -3 17 -9z m-400 -437 c-1 -11 -26 -43 -33 -43
-4 0 -1 11 5 25 10 23 28 35 28 18z m6 -48 c-9 -9 -16 -13 -16 -8 0 12 22 34
28 28 2 -2 -3 -11 -12 -20z m-83 -85 c-3 -11 -10 -20 -15 -20 -6 0 -7 7 -4 16
3 9 6 20 6 25 0 6 4 8 9 5 5 -3 7 -15 4 -26z m57 22 c0 -5 -8 -24 -17 -43 -14
-27 -18 -30 -21 -15 -4 20 16 66 30 66 4 0 8 -4 8 -8z"/>
<path d="M3950 8860 c0 -5 5 -10 11 -10 5 0 7 5 4 10 -3 6 -8 10 -11 10 -2 0
-4 -4 -4 -10z"/>
<path d="M4120 8842 c0 -5 18 -14 39 -20 32 -7 41 -7 45 4 3 8 -1 14 -8 14 -7
0 -28 3 -45 6 -18 4 -31 2 -31 -4z"/>
<path d="M3855 8760 c-18 -20 -18 -20 13 -9 18 6 32 15 32 20 0 16 -26 10 -45
-11z"/>
<path d="M5630 8685 c0 -27 7 -44 30 -67 35 -35 56 -32 53 6 -2 26 -21 51 -65
85 -16 12 -18 10 -18 -24z"/>
<path d="M5090 8657 c0 -2 8 -14 19 -26 18 -21 19 -21 24 -2 3 12 -1 22 -10
25 -16 7 -33 8 -33 3z"/>
<path d="M3650 8616 c0 -9 7 -16 16 -16 17 0 14 22 -4 28 -7 2 -12 -3 -12 -12z"/>
<path d="M4760 8587 c0 -31 2 -34 26 -29 20 4 25 9 22 31 -2 18 -10 27 -25 29
-20 3 -23 -1 -23 -31z"/>
<path d="M4533 8603 c-7 -2 -13 -11 -13 -19 0 -8 -7 -14 -14 -14 -22 0 -60
-40 -81 -85 -18 -39 -322 -352 -337 -347 -5 1 -8 -4 -9 -10 -1 -7 -4 -2 -8 12
-7 24 -4 30 47 95 10 12 4 35 -7 35 -17 0 -70 -57 -104 -111 -19 -31 -40 -60
-46 -63 -6 -4 -11 -17 -11 -30 0 -12 -9 -32 -20 -44 -12 -12 -18 -22 -14 -22
4 0 -1 -9 -11 -20 -10 -11 -22 -17 -27 -14 -5 3 -12 -3 -15 -15 -3 -12 -10
-21 -15 -21 -6 0 -7 -12 -4 -27 5 -21 4 -24 -4 -13 -7 12 -10 7 -10 -20 0 -19
-5 -42 -10 -50 -8 -13 -10 -12 -10 3 0 10 -4 15 -10 12 -5 -3 -10 -15 -10 -26
0 -10 -4 -19 -10 -19 -5 0 -10 -4 -10 -10 0 -5 9 -10 19 -10 11 0 23 -4 26
-10 3 -5 -3 -10 -14 -10 -12 0 -21 -4 -21 -10 0 -5 7 -10 15 -10 8 0 15 -4 15
-10 0 -5 -5 -10 -11 -10 -6 0 -4 -7 5 -15 8 -8 18 -24 21 -35 9 -28 28 -25 23
4 -3 17 -1 23 8 19 19 -7 26 -35 12 -45 -10 -6 -8 -8 5 -8 23 0 34 29 16 42
-10 7 -8 8 9 5 17 -4 22 -1 22 15 0 22 30 78 42 78 4 0 15 15 24 33 9 17 23
36 30 40 8 4 14 18 14 30 1 20 2 20 11 4 6 -9 15 -15 20 -12 5 4 6 11 3 17 -5
7 -1 9 9 5 11 -4 22 1 29 13 8 12 24 20 40 20 16 0 28 5 28 13 0 7 20 32 45
56 25 24 45 49 45 56 0 7 6 15 13 18 6 2 9 8 5 12 -4 4 -17 -2 -29 -14 -15
-14 -25 -17 -30 -10 -9 16 -14 16 -35 -1 -17 -13 -18 -13 -8 0 6 8 14 28 18
43 4 15 11 25 16 22 12 -7 30 34 23 53 -4 8 0 10 11 6 12 -5 16 0 16 20 0 16
6 26 15 26 14 0 19 12 16 33 0 4 8 7 19 7 13 0 20 7 20 20 0 13 9 22 25 26 14
3 25 12 25 18 0 7 12 19 28 27 15 7 41 24 59 37 22 16 39 22 53 17 15 -5 29 0
46 16 19 18 27 21 33 10 14 -22 56 -9 60 19 1 14 8 28 15 32 6 5 2 8 -11 8
-29 0 -30 26 -3 35 11 3 20 12 20 20 0 8 -9 17 -20 20 -11 3 -20 11 -20 16 0
5 -9 9 -21 9 -11 0 -17 5 -14 10 6 10 -49 13 -72 3z m107 -133 c0 -18 -2 -19
-20 -8 -11 7 -20 16 -20 20 0 5 9 8 20 8 13 0 20 -7 20 -20z"/>
<path d="M5363 8578 c-33 -37 -53 -84 -59 -141 -6 -52 -5 -55 24 -76 17 -11
37 -19 45 -16 12 5 60 117 82 192 16 57 -51 86 -92 41z"/>
<path d="M5065 8533 c-4 -32 -9 -70 -10 -85 -1 -15 -7 -33 -14 -41 -9 -12 -6
-16 16 -20 16 -4 38 -9 51 -13 16 -5 22 -2 22 10 0 9 -7 16 -16 16 -12 0 -14
9 -10 43 2 23 5 42 7 42 1 0 3 9 4 20 2 11 8 35 14 53 9 32 9 32 -24 32 -32 0
-33 -1 -40 -57z"/>
<path d="M7010 8516 c0 -2 7 -6 15 -10 8 -3 15 -1 15 4 0 6 -7 10 -15 10 -8 0
-15 -2 -15 -4z"/>
<path d="M7116 8430 c12 -5 25 -13 29 -19 3 -6 14 -11 23 -10 13 0 12 3 -5 11
-13 6 -23 15 -23 20 0 4 -10 8 -22 7 l-23 0 21 -9z"/>
<path d="M5058 8321 c-4 -43 3 -82 15 -82 27 3 36 -2 42 -21 7 -21 8 -20 15
12 l7 35 2 -40 c2 -55 18 -71 84 -85 49 -10 59 -9 73 4 8 9 26 16 39 16 18 0
23 4 18 16 -7 19 15 36 40 28 12 -4 17 0 17 16 0 16 4 20 16 16 12 -5 15 -2 9
11 -4 10 -10 26 -12 36 -7 23 -15 22 -47 -8 -15 -14 -34 -25 -43 -25 -9 0 -13
-3 -10 -7 9 -8 -23 -32 -43 -33 -8 0 -21 -9 -27 -19 -8 -13 -19 -18 -32 -14
-11 3 -20 8 -19 12 3 26 -5 40 -24 43 -15 2 -24 11 -26 26 -3 16 -8 22 -19 18
-12 -5 -14 -1 -9 21 5 20 4 24 -3 14 -8 -12 -12 -12 -25 -2 -9 8 -16 22 -16
32 0 36 -18 19 -22 -20z"/>
<path d="M7225 8350 c3 -5 8 -10 11 -10 2 0 4 5 4 10 0 6 -5 10 -11 10 -5 0
-7 -4 -4 -10z"/>
<path d="M7265 8310 c3 -5 8 -10 11 -10 2 0 4 5 4 10 0 6 -5 10 -11 10 -5 0
-7 -4 -4 -10z"/>
<path d="M3658 8265 c-2 -19 0 -35 4 -35 4 0 8 9 8 19 0 11 3 26 6 35 3 9 2
16 -4 16 -5 0 -12 -16 -14 -35z"/>
<path d="M6038 8195 c-3 -3 -21 -6 -41 -7 -21 -1 -38 -7 -41 -15 -4 -9 -13
-12 -25 -8 -12 3 -21 0 -25 -10 -4 -11 -13 -14 -30 -9 -19 4 -27 1 -36 -16 -8
-15 -18 -20 -31 -17 -13 4 -19 0 -19 -13 0 -12 -19 -26 -55 -44 -30 -14 -55
-32 -55 -40 0 -7 -9 -16 -20 -19 -11 -3 -24 -16 -29 -30 -12 -32 -42 -67 -57
-67 -6 0 -11 -17 -12 -37 -1 -20 -6 -39 -11 -42 -29 -19 -124 -242 -108 -257
3 -3 15 0 26 8 12 8 18 18 14 21 -3 4 4 7 16 7 12 0 41 19 66 43 24 23 56 51
70 62 45 34 55 46 55 65 0 12 5 17 13 14 7 -2 20 9 30 26 10 16 22 30 28 30 5
0 9 5 9 10 0 6 -7 10 -15 10 -16 0 -45 49 -45 77 1 16 2 16 16 -2 22 -29 52
-28 46 2 -6 29 13 52 37 46 21 -5 42 18 23 25 -7 2 -12 10 -12 18 0 9 -5 12
-12 8 -7 -3 -1 5 14 20 15 14 38 31 50 37 13 6 50 26 83 44 33 19 68 38 78 41
9 3 17 10 17 15 0 10 -4 11 -12 4z m-288 -219 c0 -3 -4 -8 -10 -11 -5 -3 -10
-1 -10 4 0 6 5 11 10 11 6 0 10 -2 10 -4z m-40 -112 c0 -8 5 -14 10 -14 6 0
10 -4 10 -9 0 -5 -9 -7 -20 -4 -11 3 -20 11 -20 18 0 8 -3 22 -7 32 -6 16 -5
16 10 4 9 -7 17 -20 17 -27z"/>
<path d="M3391 8134 c0 -11 3 -14 6 -6 3 7 2 16 -1 19 -3 4 -6 -2 -5 -13z"/>
<path d="M3251 8113 c-1 -7 10 -36 23 -65 12 -29 28 -75 35 -103 14 -56 16
-59 30 -51 6 4 4 16 -5 34 -7 15 -14 34 -14 42 0 8 -7 28 -15 44 -8 15 -15 34
-15 41 0 8 -6 20 -13 27 -8 7 -16 20 -20 28 -3 9 -6 10 -6 3z"/>
<path d="M3410 8055 c0 -8 5 -15 10 -15 6 0 10 7 10 15 0 8 -4 15 -10 15 -5 0
-10 -7 -10 -15z"/>
<path d="M3440 8059 c0 -5 5 -7 10 -4 6 3 10 8 10 11 0 2 -4 4 -10 4 -5 0 -10
-5 -10 -11z"/>
<path d="M3587 8043 c-10 -9 -8 -43 2 -43 5 0 11 11 13 25 5 24 -2 32 -15 18z"/>
<path d="M5590 8035 c0 -5 5 -17 10 -25 5 -8 10 -10 10 -5 0 6 -5 17 -10 25
-5 8 -10 11 -10 5z"/>
<path d="M3418 8023 c7 -3 16 -2 19 1 4 3 -2 6 -13 5 -11 0 -14 -3 -6 -6z"/>
<path d="M0 7927 c0 -46 3 -57 16 -57 9 0 23 -8 30 -17 11 -15 12 -13 2 17 -6
19 -18 49 -26 65 -9 17 -15 32 -13 33 1 2 0 6 -3 10 -3 3 -6 -20 -6 -51z"/>
<path d="M3508 7973 c6 -2 9 -10 6 -15 -4 -7 -2 -8 5 -4 13 9 5 26 -12 25 -9
0 -8 -2 1 -6z"/>
<path d="M3400 7954 c0 -8 5 -12 10 -9 6 4 8 11 5 16 -9 14 -15 11 -15 -7z"/>
<path d="M3342 7885 c-34 -18 -49 -35 -33 -35 9 0 11 -8 8 -23 -4 -12 -2 -29
3 -37 7 -10 10 -11 10 -2 0 6 6 12 14 12 10 0 14 9 13 27 -1 20 4 31 21 38 28
12 29 25 0 17 -14 -3 -19 -2 -14 6 8 14 8 14 -22 -3z"/>
<path d="M3640 7890 c0 -5 5 -10 11 -10 5 0 7 5 4 10 -3 6 -8 10 -11 10 -2 0
-4 -4 -4 -10z"/>
<path d="M3520 7880 c0 -5 5 -10 11 -10 5 0 7 5 4 10 -3 6 -8 10 -11 10 -2 0
-4 -4 -4 -10z"/>
<path d="M7772 7870 c-7 -12 -10 -26 -6 -32 6 -10 33 25 34 45 0 14 -15 7 -28
-13z"/>
<path d="M3478 7844 c18 -25 37 -30 47 -14 10 16 -13 38 -40 38 -23 0 -24 -1
-7 -24z"/>
<path d="M3600 7860 c0 -5 7 -10 16 -10 8 0 12 5 9 10 -3 6 -10 10 -16 10 -5
0 -9 -4 -9 -10z"/>
<path d="M20 7810 c0 -5 5 -10 10 -10 6 0 10 5 10 10 0 6 -4 10 -10 10 -5 0
-10 -4 -10 -10z"/>
<path d="M3370 7785 c0 -14 4 -25 9 -25 5 0 11 11 13 25 4 17 1 25 -8 25 -8 0
-14 -11 -14 -25z"/>
<path d="M80 7770 c0 -5 5 -10 10 -10 6 0 10 5 10 10 0 6 -4 10 -10 10 -5 0
-10 -4 -10 -10z"/>
<path d="M7145 7668 c0 -51 -3 -109 -7 -128 l-8 -35 19 25 c11 13 23 45 27 70
4 25 8 47 9 50 30 105 29 110 -13 110 l-27 0 0 -92z"/>
<path d="M93 7705 c-7 -8 -13 -24 -12 -37 1 -21 1 -21 11 5 10 28 22 34 33 17
3 -5 11 -10 17 -10 6 0 3 9 -7 20 -21 23 -26 24 -42 5z"/>
<path d="M125 7640 c3 -5 14 -10 23 -10 15 0 15 2 2 10 -20 13 -33 13 -25 0z"/>
<path d="M3830 7620 c-9 -6 -10 -10 -3 -10 6 0 15 5 18 10 8 12 4 12 -15 0z"/>
<path d="M3766 7575 c-4 -13 -2 -14 14 -5 23 13 26 20 6 20 -8 0 -16 -7 -20
-15z"/>
<path d="M7647 7543 c-37 -58 -53 -93 -70 -148 -29 -92 -104 -279 -131 -325
-14 -25 -37 -67 -50 -95 -13 -27 -38 -67 -55 -89 -17 -21 -31 -46 -32 -55 -4
-82 -24 -134 -75 -190 -29 -32 -43 -55 -38 -63 5 -7 65 -80 134 -163 69 -82
144 -173 166 -201 41 -53 112 -133 283 -321 52 -57 105 -119 118 -138 13 -19
29 -35 35 -35 16 0 78 74 153 185 37 55 90 126 117 158 55 63 73 68 133 40 35
-17 36 -16 108 16 90 42 190 77 241 87 21 3 52 19 70 34 44 39 203 137 242
150 38 13 37 0 9 163 -12 69 -40 158 -66 209 -5 10 -9 24 -9 32 0 8 -4 16 -8
18 -4 2 -27 31 -51 66 -24 34 -47 62 -51 62 -4 0 -12 -45 -18 -101 -13 -127
-38 -169 -117 -205 -52 -24 -54 -24 -101 -8 -63 21 -118 73 -154 149 -38 77
-88 278 -103 419 -18 155 -31 154 -85 -8 -23 -69 -42 -138 -42 -152 0 -37 -62
-214 -102 -293 -40 -78 -67 -99 -134 -107 -84 -10 -161 42 -204 139 -32 72
-29 221 10 456 16 102 35 210 42 239 6 28 9 54 7 56 -2 2 -26 15 -52 30 -67
37 -92 34 -120 -11z"/>
<path d="M690 7435 c-34 -75 -38 -115 -12 -138 26 -24 79 -22 87 2 4 12 12 18
21 14 7 -3 14 0 14 6 0 6 -6 11 -12 11 -10 0 -10 2 0 8 7 5 10 16 7 24 -3 8 1
22 9 31 21 21 20 64 -1 76 -10 6 -13 11 -8 11 23 1 -22 20 -48 20 -24 0 -31
-8 -57 -65z"/>
<path d="M4256 7292 c-2 -4 4 -13 14 -20 14 -9 21 -9 26 0 4 7 3 8 -4 4 -7 -4
-12 -1 -12 8 0 17 -15 22 -24 8z"/>
<path d="M4216 7259 c-11 -11 -15 -19 -9 -19 12 0 38 28 32 34 -2 2 -13 -5
-23 -15z"/>
<path d="M356 7200 c7 -61 14 -80 25 -80 6 0 6 -7 0 -19 -8 -15 -7 -20 5 -25
10 -4 14 -12 10 -23 -4 -9 -2 -19 3 -22 11 -7 18 -117 8 -128 -8 -7 -10 -83
-2 -83 18 0 104 64 113 85 14 30 15 52 5 57 -12 5 -63 104 -63 121 0 8 -11 26
-25 41 -14 15 -28 38 -31 51 -3 14 -12 25 -19 25 -6 0 -17 10 -23 23 -10 19
-11 15 -6 -23z"/>
<path d="M4270 7210 c0 -5 5 -10 11 -10 5 0 7 5 4 10 -3 6 -8 10 -11 10 -2 0
-4 -4 -4 -10z"/>
<path d="M4380 7124 c0 -13 8 -24 20 -27 26 -7 37 11 13 20 -10 4 -21 11 -25
17 -5 6 -8 2 -8 -10z"/>
<path d="M4145 7110 c-3 -5 -1 -10 4 -10 6 0 11 5 11 10 0 6 -2 10 -4 10 -3 0
-8 -4 -11 -10z"/>
<path d="M4174 7108 c-3 -4 6 -8 20 -8 14 0 26 4 26 9 0 11 -39 10 -46 -1z"/>
<path d="M3995 7012 c-19 -26 -35 -50 -35 -53 0 -7 424 -149 443 -149 7 0 1 9
-13 19 -23 18 -24 22 -14 60 9 33 9 41 -2 41 -8 0 -14 7 -14 15 0 8 -4 15 -10
15 -5 0 -10 -11 -10 -25 0 -14 -4 -25 -10 -25 -5 0 -10 5 -10 10 0 6 -8 14
-17 17 -20 8 -93 83 -93 96 0 4 -4 6 -10 2 -5 -3 -7 -12 -4 -19 7 -18 -39 -26
-84 -14 -19 5 -45 20 -58 34 l-24 23 -35 -47z"/>
<path d="M4650 6765 c-24 -8 -30 -14 -20 -18 8 -4 -1 -5 -20 -2 -33 5 -34 4
-10 -7 51 -24 126 -55 147 -62 18 -6 22 -4 17 8 -3 8 -1 24 6 35 14 27 3 27
-19 0 -16 -20 -19 -20 -54 -6 -41 18 -44 22 -21 31 8 3 13 2 10 -3 -3 -5 1
-12 10 -15 30 -12 42 -6 40 18 -1 17 -4 21 -12 15 -8 -6 -17 -5 -26 4 -11 11
-20 11 -48 2z"/>
<path d="M6990 6701 c0 -11 4 -22 9 -25 4 -3 6 6 3 19 -5 30 -12 33 -12 6z"/>
<path d="M5165 6445 c32 -27 86 -57 92 -52 2 2 -25 20 -59 40 -46 27 -55 30
-33 12z"/>
<path d="M5290 6370 c14 -11 29 -20 34 -20 5 0 -3 9 -17 20 -14 11 -29 20 -34
20 -4 0 3 -9 17 -20z"/>
<path d="M5550 5746 c0 -13 59 -45 65 -36 4 6 1 9 -7 8 -7 -2 -12 2 -11 9 2 7
-4 10 -12 7 -8 -4 -15 -1 -15 5 0 6 -4 11 -10 11 -5 0 -10 -2 -10 -4z"/>
<path d="M5621 5697 c2 -2 28 -26 58 -53 30 -27 50 -42 45 -33 -9 17 -92 89
-102 89 -3 0 -3 -1 -1 -3z"/>
<path d="M5740 5625 c0 -5 5 -17 10 -25 5 -8 10 -10 10 -5 0 6 -5 17 -10 25
-5 8 -10 11 -10 5z"/>
<path d="M5738 5575 c5 -11 12 -27 15 -35 5 -13 6 -13 6 1 1 8 -6 24 -15 35
-15 19 -15 19 -6 -1z"/>
<path d="M4980 5537 c0 -3 15 -10 32 -16 18 -6 28 -7 23 -2 -12 10 -55 25 -55
18z"/>
<path d="M1044 5505 c5 -17 1 -20 -27 -22 -17 -1 -48 -3 -67 -4 -19 -2 -43 1
-52 5 -14 6 -18 4 -18 -12 0 -17 9 -21 52 -27 32 -5 59 -15 69 -26 19 -22 39
-25 39 -6 0 17 42 16 53 0 4 -7 13 -13 19 -13 6 0 4 8 -5 18 -8 9 -27 37 -42
62 -14 25 -24 36 -21 25z"/>
<path d="M234 5475 c4 -10 -1 -15 -14 -15 -11 0 -20 4 -20 10 0 6 -9 6 -24 0
-13 -5 -27 -6 -30 -3 -3 4 -6 -1 -6 -10 0 -9 -4 -17 -9 -17 -4 0 -13 -19 -18
-42 l-11 -43 -1 42 c-1 43 -9 54 -45 59 -12 1 -29 5 -39 9 -14 6 -17 1 -17
-28 0 -19 6 -38 13 -40 10 -4 10 -6 0 -6 -10 -1 -13 -28 -13 -102 l0 -101 56
4 c31 3 59 11 64 18 5 8 31 13 66 14 63 1 96 18 75 39 -14 14 -14 27 -1 27 6
0 10 -7 10 -15 0 -8 5 -15 10 -15 6 0 10 -7 10 -15 0 -8 5 -15 10 -15 6 0 10
7 10 15 0 8 11 17 25 21 14 3 25 13 25 21 0 10 10 14 38 12 79 -5 122 0 122
16 0 12 -13 14 -76 11 -42 -3 -81 -9 -87 -15 -16 -16 -47 -13 -47 4 0 10 10
15 29 15 17 0 33 5 37 11 3 6 20 9 38 6 17 -2 39 0 50 5 16 9 14 12 -24 29
-45 20 -84 12 -74 -16 4 -9 -1 -13 -15 -12 -12 1 -21 7 -21 14 0 17 -17 17
-23 1 -3 -8 -6 -6 -6 5 -1 13 -10 17 -40 17 -22 0 -43 5 -46 10 -4 6 15 10 49
10 34 0 56 -5 59 -12 2 -7 7 -10 11 -7 16 15 -8 38 -42 41 -34 3 -37 5 -34 31
3 20 -1 27 -13 27 -11 0 -15 -5 -11 -15z m-48 -60 c4 -14 3 -29 0 -33 -9 -8
-26 18 -26 41 0 26 19 20 26 -8z m-41 -14 c3 -5 1 -12 -5 -16 -5 -3 -10 1 -10
9 0 18 6 21 15 7z m42 -53 c-3 -8 -6 -5 -6 6 -1 11 2 17 5 13 3 -3 4 -12 1
-19z m42 -21 c1 -5 -3 -5 -9 -2 -5 3 -10 16 -9 28 0 21 1 21 9 2 5 -11 9 -24
9 -28z m-119 3 c0 -5 -2 -10 -4 -10 -3 0 -8 5 -11 10 -3 6 -1 10 4 10 6 0 11
-4 11 -10z m196 -67 c-10 -10 -19 5 -10 18 6 11 8 11 12 0 2 -7 1 -15 -2 -18z
m-149 -5 c-3 -8 -6 -5 -6 6 -1 11 2 17 5 13 3 -3 4 -12 1 -19z"/>
<path d="M853 5445 c0 -28 4 -42 10 -36 5 5 21 5 40 0 44 -13 51 -11 37 6 -7
8 -25 15 -41 15 -26 0 -29 4 -29 30 0 17 -4 30 -8 30 -5 0 -9 -20 -9 -45z"/>
<path d="M430 5453 c0 -5 14 -16 31 -25 17 -10 27 -22 24 -28 -7 -12 5 -13 23
-1 11 6 8 13 -12 29 -23 18 -24 21 -9 25 10 3 1 5 -19 6 -21 0 -38 -2 -38 -6z"/>
<path d="M697 5454 c-11 -11 36 -46 55 -41 9 3 19 0 22 -7 3 -7 8 -7 14 3 9
12 13 12 26 2 13 -11 16 -11 16 0 0 20 -20 49 -20 30 0 -9 -4 -10 -12 -3 -17
13 -92 25 -101 16z"/>
<path d="M535 5440 c3 -5 13 -10 21 -10 8 0 12 5 9 10 -3 6 -13 10 -21 10 -8
0 -12 -4 -9 -10z"/>
<path d="M5730 5383 c0 -22 -2 -25 -10 -13 -9 13 -11 13 -19 1 -5 -8 -15 -16
-23 -17 -7 -2 -24 -6 -38 -9 -14 -4 -38 -6 -55 -6 -26 0 -24 -3 30 -34 33 -19
75 -47 93 -64 28 -27 32 -36 32 -83 0 -29 -3 -63 -6 -75 -5 -19 -36 -37 -57
-34 -4 1 -3 -8 3 -19 9 -16 8 -18 -5 -14 -8 4 -15 10 -15 16 0 5 -4 7 -9 3 -6
-3 -57 -10 -115 -15 -99 -10 -236 -2 -277 15 -14 5 -16 0 -12 -39 4 -33 1 -53
-12 -72 -9 -14 -15 -28 -13 -30 3 -2 36 5 74 15 38 11 123 31 189 45 66 15
130 29 143 31 13 3 21 9 18 13 -2 4 20 7 49 7 33 0 59 5 67 14 10 10 10 12 1
7 -9 -5 -13 0 -13 14 0 11 7 23 16 27 10 4 12 8 5 13 -7 3 -13 23 -14 43 -3
36 -2 37 30 37 18 0 33 5 33 10 0 6 -4 10 -10 10 -5 0 -10 6 -10 14 0 8 -7 16
-15 20 -8 3 -15 12 -15 21 0 8 -4 15 -8 15 -5 0 -8 17 -6 38 2 20 3 41 3 45 1
5 5 6 10 3 20 -13 18 34 -3 53 -29 28 -36 26 -36 -6z m20 -105 c0 -6 -7 -5
-15 2 -8 7 -15 17 -15 22 0 6 7 5 15 -2 8 -7 15 -17 15 -22z m10 -66 c0 -15
-2 -15 -10 -2 -13 20 -13 33 0 25 6 -3 10 -14 10 -23z"/>
<path d="M508 5374 c-7 -7 31 -54 44 -54 4 0 8 7 8 15 0 9 13 18 31 22 20 4
26 8 18 14 -7 4 -21 1 -32 -6 -17 -12 -23 -12 -42 1 -12 8 -24 11 -27 8z"/>
<path d="M585 5322 c-8 -9 -6 -42 4 -42 5 0 12 7 15 16 4 9 13 14 21 10 8 -3
15 0 15 6 0 7 5 6 15 -2 8 -7 15 -8 15 -3 0 5 17 7 38 5 20 -3 34 -1 29 4 -8
9 -143 14 -152 6z"/>
<path d="M174 5147 c-18 -22 -26 -51 -28 -106 -2 -43 -7 -57 -27 -72 l-24 -19
23 0 c12 0 22 -4 22 -10 0 -5 -9 -10 -20 -10 -17 0 -20 -7 -20 -39 0 -22 -4
-42 -9 -45 -5 -3 -12 -26 -15 -51 -4 -24 -12 -47 -17 -51 -6 -4 -4 -13 6 -24
16 -17 15 -19 -5 -30 -12 -6 -19 -17 -17 -23 2 -7 -1 -23 -8 -37 -7 -14 -13
-42 -13 -63 -1 -20 -6 -46 -12 -56 -14 -26 -14 -651 0 -651 6 0 10 7 10 16 0
9 9 27 20 41 16 21 18 29 8 41 -10 12 -10 16 0 19 6 3 12 13 12 24 0 10 6 19
14 19 17 0 26 22 26 61 0 16 5 29 11 29 7 0 9 10 5 24 -4 18 0 31 18 49 16 17
21 28 15 38 -5 8 -9 28 -9 46 0 25 5 32 22 35 24 3 25 10 32 125 2 39 7 76 11
83 4 6 -1 20 -10 30 -12 13 -13 20 -5 25 7 5 10 20 6 39 -11 60 -16 278 -6
296 5 9 6 20 3 24 -4 4 -8 40 -10 81 -3 61 0 75 12 75 8 0 15 5 15 11 0 5 -4
8 -9 5 -5 -3 -14 0 -20 8 -9 11 -8 17 4 29 8 9 15 18 15 21 0 10 -14 6 -26 -7z"/>
<path d="M5782 5061 c-23 -6 -23 -6 -3 -23 16 -14 29 -15 63 -9 l43 9 -45 1
c-29 1 -40 4 -31 10 18 12 1 19 -27 12z"/>
<path d="M5928 5043 c6 -2 18 -2 25 0 6 3 1 5 -13 5 -14 0 -19 -2 -12 -5z"/>
<path d="M3100 4945 c0 -10 151 -158 156 -152 14 14 -116 157 -143 157 -7 0
-13 -2 -13 -5z"/>
<path d="M3453 4892 c-51 -1 -93 -6 -93 -10 0 -4 9 -13 21 -20 12 -7 18 -16
15 -19 -9 -9 14 -43 29 -43 14 0 19 -12 16 -32 0 -5 6 -8 14 -8 8 0 15 -7 15
-15 0 -8 5 -15 10 -15 6 0 10 -6 10 -12 0 -7 11 -26 25 -42 36 -42 21 -50 -37
-20 -61 31 -71 26 -23 -10 19 -15 33 -31 30 -35 -4 -8 33 -45 114 -113 18 -16
37 -25 42 -22 5 3 9 -3 9 -13 1 -24 30 -64 30 -41 0 9 -4 18 -9 20 -5 2 -3 9
5 16 11 10 19 7 43 -17 16 -16 33 -30 38 -32 14 -6 75 -89 66 -89 -4 -1 1 -8
12 -18 29 -24 48 -89 30 -100 -10 -5 -11 -12 -5 -22 8 -12 10 -12 16 3 5 15 9
14 27 -10 15 -18 22 -44 24 -82 1 -31 5 -73 8 -93 5 -37 5 -37 -21 -28 -36 14
-44 3 -16 -20 13 -11 20 -24 16 -34 -3 -9 -1 -16 4 -16 17 0 26 -41 11 -52
-10 -6 -6 -7 11 -2 23 6 24 6 10 -12 -8 -10 -21 -23 -27 -27 -7 -4 -13 -15
-13 -22 0 -8 -4 -15 -10 -15 -5 0 -16 -15 -25 -34 -9 -18 -34 -48 -55 -66 -22
-19 -40 -42 -40 -52 0 -10 -5 -18 -11 -18 -6 0 -9 -9 -6 -20 3 -11 1 -20 -4
-20 -5 0 -9 -4 -9 -10 0 -19 15 -9 40 26 14 19 48 59 77 88 47 49 52 52 56 30
5 -28 -13 -70 -47 -109 -14 -16 -26 -38 -26 -47 0 -10 -4 -18 -10 -18 -5 0 -7
-7 -3 -16 5 -13 2 -15 -15 -9 -12 3 -22 2 -22 -3 0 -8 42 -26 45 -19 1 1 11
16 22 32 11 17 37 73 58 125 21 52 42 99 47 105 4 5 8 16 8 24 0 8 25 51 55
96 30 45 55 85 55 89 0 11 83 117 114 145 21 20 26 34 26 71 0 26 -7 67 -16
91 -9 24 -17 76 -18 114 -1 66 1 73 36 120 55 76 95 100 325 195 54 23 107 47
119 55 11 7 36 18 55 24 19 5 59 19 89 30 l55 20 -70 0 c-39 1 -106 5 -150 11
-87 11 -223 21 -585 46 -129 9 -251 18 -270 20 -57 6 -248 9 -347 6z m497
-1176 c0 -3 -4 -8 -10 -11 -5 -3 -10 -1 -10 4 0 6 5 11 10 11 6 0 10 -2 10 -4z"/>
<path d="M3440 4620 c0 -5 4 -10 9 -10 6 0 13 5 16 10 3 6 -1 10 -9 10 -9 0
-16 -4 -16 -10z"/>
<path d="M150 4250 c0 -5 5 -10 10 -10 6 0 10 5 10 10 0 6 -4 10 -10 10 -5 0
-10 -4 -10 -10z"/>
<path d="M3797 3421 c4 -17 2 -22 -6 -17 -6 4 -11 1 -11 -9 0 -9 -6 -29 -14
-43 -8 -15 -29 -58 -47 -97 -18 -38 -34 -73 -36 -77 -2 -5 0 -8 5 -8 9 0 95
165 125 240 13 33 13 36 -4 36 -14 0 -17 -5 -12 -25z"/>
<path d="M3649 3077 c-20 -15 -34 -57 -19 -57 7 0 8 -6 0 -19 -15 -29 -12 -49
4 -26 7 11 14 33 14 48 0 15 8 37 17 47 20 22 9 26 -16 7z"/>
<path d="M446 3060 c-8 -21 -25 -94 -40 -166 -7 -34 -16 -65 -19 -71 -3 -5
-11 -41 -17 -79 -6 -38 -15 -80 -20 -94 -16 -40 -39 -331 -30 -378 4 -23 5
-42 2 -42 -2 0 0 -6 6 -12 5 -7 12 -41 15 -76 4 -34 10 -70 15 -78 5 -9 7 -25
5 -34 -3 -10 0 -21 6 -24 6 -4 11 -25 11 -47 0 -21 4 -39 9 -39 5 0 11 -14 14
-30 10 -50 12 -57 24 -71 6 -8 11 -16 10 -19 -3 -9 24 -94 39 -121 7 -14 18
-48 24 -75 6 -27 16 -65 24 -84 33 -88 57 -169 70 -240 1 -8 5 -22 8 -30 17
-46 38 -125 38 -146 0 -13 5 -24 10 -24 6 0 10 -8 10 -18 0 -10 6 -27 14 -37
7 -10 11 -26 9 -36 -3 -9 0 -20 6 -23 6 -4 11 -18 11 -31 0 -13 6 -26 13 -28
9 -4 9 -8 -2 -15 -10 -7 -10 -11 -1 -14 7 -2 13 -24 14 -49 1 -24 5 -50 9 -56
4 -6 1 -13 -5 -16 -11 -3 -10 -9 0 -26 22 -38 40 -104 47 -170 4 -36 11 -73
16 -84 13 -22 20 -99 23 -232 2 -69 7 -109 18 -131 22 -40 11 -54 -41 -56 -30
-1 -45 -7 -52 -20 -10 -19 -11 -19 -24 -1 -13 17 -14 16 -15 -9 l0 -28 160 0
159 0 -5 33 c-3 17 -13 57 -21 87 -17 65 -18 76 -34 200 -6 52 -15 102 -20
111 -8 16 -39 207 -43 265 -1 17 -7 38 -14 46 -7 9 -11 24 -10 34 2 20 -1 38
-38 214 -13 63 -26 133 -28 155 -8 61 -25 173 -36 235 -5 30 -19 123 -30 205
-12 83 -32 206 -45 275 -13 69 -36 195 -50 280 -15 85 -35 198 -46 250 -11 52
-24 122 -29 155 -14 93 -39 204 -50 225 -6 10 -10 53 -10 95 0 88 -13 150 -40
185 -15 19 -20 22 -24 10z"/>
<path d="M3596 2943 c-6 -14 -5 -15 5 -6 7 7 10 15 7 18 -3 3 -9 -2 -12 -12z"/>
<path d="M3540 2898 c-31 -21 -75 -86 -65 -96 4 -5 10 1 74 71 47 51 44 60 -9
25z"/>
<path d="M200 1963 c0 -45 1 -46 75 -57 37 -6 39 -5 21 9 -11 8 -28 15 -38 15
-10 0 -18 6 -18 13 0 6 -9 23 -20 37 l-20 25 0 -42z"/>
<path d="M10 1150 c0 -5 5 -10 11 -10 5 0 7 5 4 10 -3 6 -8 10 -11 10 -2 0 -4
-4 -4 -10z"/>
<path d="M0 1060 c0 -27 2 -50 4 -50 15 0 35 14 30 21 -3 5 0 9 7 9 8 0 6 5
-5 13 -9 7 -18 22 -19 35 -3 44 -17 21 -17 -28z"/>
<path d="M31 1094 c0 -11 3 -14 6 -6 3 7 2 16 -1 19 -3 4 -6 -2 -5 -13z"/>
<path d="M0 910 c0 -53 3 -70 14 -70 11 0 13 14 11 63 -4 81 -4 77 -15 77 -6
0 -10 -30 -10 -70z"/>
<path d="M50 660 c0 -5 7 -10 15 -10 8 0 15 5 15 10 0 6 -7 10 -15 10 -8 0
-15 -4 -15 -10z"/>
<path d="M130 410 c0 -5 5 -10 10 -10 6 0 10 5 10 10 0 6 -4 10 -10 10 -5 0
-10 -4 -10 -10z"/>
<path d="M92 374 c0 -25 3 -33 9 -23 11 18 12 59 0 59 -5 0 -9 -16 -9 -36z"/>
<path d="M462 368 c3 -7 13 -15 22 -16 12 -3 17 1 14 10 -3 7 -13 15 -22 16
-12 3 -17 -1 -14 -10z"/>
<path d="M40 360 c0 -5 4 -10 9 -10 6 0 13 5 16 10 3 6 -1 10 -9 10 -9 0 -16
-4 -16 -10z"/>
<path d="M665 331 c-7 -12 12 -24 25 -16 11 7 4 25 -10 25 -5 0 -11 -4 -15 -9z"/>
<path d="M781 288 c9 -8 19 -22 22 -33 3 -12 5 -8 4 10 -1 21 -8 31 -22 33
-18 3 -18 2 -4 -10z"/>
<path d="M750 255 c0 -8 7 -15 15 -15 8 0 15 7 15 15 0 8 -7 15 -15 15 -8 0
-15 -7 -15 -15z"/>
<path d="M1 159 c-1 -84 9 -113 35 -108 24 4 34 -3 34 -26 l0 -25 270 0 c248
0 293 4 260 25 -5 3 -10 1 -10 -5 0 -6 -5 -8 -10 -5 -6 4 -8 16 -4 27 5 18 3
20 -15 15 -11 -3 -21 -1 -21 4 0 5 8 9 18 9 15 1 15 2 -2 15 -15 11 -16 15 -5
16 40 2 89 18 89 29 0 4 23 7 50 6 42 -2 50 0 50 15 0 13 -11 19 -45 25 -25 3
-54 4 -66 1 -11 -3 -38 1 -60 8 -21 8 -39 11 -39 7 0 -4 -9 4 -20 18 -17 22
-22 23 -39 13 -12 -7 -30 -13 -41 -13 -11 0 -20 -4 -20 -10 0 -5 -4 -10 -10
-10 -5 0 -10 7 -10 16 0 11 -5 14 -17 10 -9 -4 -20 -1 -24 6 -5 8 -11 9 -21 1
-7 -5 -32 -9 -55 -8 -23 0 -40 -2 -37 -6 7 -11 -30 -29 -60 -29 -14 0 -26 5
-26 10 0 6 -4 10 -10 10 -5 0 -10 -9 -10 -20 0 -11 -4 -20 -10 -20 -5 0 -10 7
-10 15 0 8 -4 15 -10 15 -5 0 -10 -7 -10 -16 0 -14 -3 -14 -15 -4 -8 7 -15 21
-15 31 0 24 -16 25 -29 2 -8 -15 -10 -16 -15 -3 -2 8 -7 22 -9 30 -3 8 -6 -24
-6 -71z m493 -70 c5 -5 7 -12 3 -15 -6 -6 -77 22 -77 31 0 7 64 -7 74 -16z
m-57 -25 c-3 -3 -12 -4 -19 -1 -8 3 -5 6 6 6 11 1 17 -2 13 -5z"/>
<path d="M640 90 c0 -5 5 -10 11 -10 5 0 7 5 4 10 -3 6 -8 10 -11 10 -2 0 -4
-4 -4 -10z"/>
<path d="M1 14 c0 -11 3 -14 6 -6 3 7 2 16 -1 19 -3 4 -6 -2 -5 -13z"/>
<path d="M621 14 c0 -11 3 -14 6 -6 3 7 2 16 -1 19 -3 4 -6 -2 -5 -13z"/>
</g>
</svg>
