<svg aria-hidden="true" style="position: absolute; width: 0; height: 0; overflow: hidden;" version="1.1" xmlns="http://www.w3.org/2000/svg" xmlns:xlink="http://www.w3.org/1999/xlink">
<defs>
<symbol id="icon-Arrow" viewBox="0 0 38 32">
<path d="M0.624 17.218c-0.833-0.833-0.833-2.184 0-3.017l13.576-13.576c0.833-0.833 2.184-0.833 3.017 0s0.833 2.184 0 3.017l-12.068 12.068 12.068 12.068c0.833 0.833 0.833 2.184 0 3.017s-2.184 0.833-3.017 0l-13.576-13.576zM37.892 17.843l-35.759 0v-4.267l35.759-0v4.267z"></path>
</symbol>
<symbol id="icon-facebook-2" viewBox="0 0 19 32">
<path d="M18.004 0.238c-1.537-0.163-3.082-0.242-4.628-0.238-5.125 0-8.309 3.264-8.309 8.518v3.567h-4.305c-0.202 0-0.396 0.080-0.539 0.223s-0.223 0.337-0.223 0.539v5.867c0 0.202 0.080 0.396 0.223 0.539s0.337 0.223 0.539 0.223h4.305v11.764c0 0.202 0.080 0.396 0.223 0.539s0.337 0.223 0.539 0.223h6.062c0.202 0 0.396-0.080 0.539-0.223s0.223-0.337 0.223-0.539v-11.764h4.291c0.185 0 0.364-0.067 0.503-0.189s0.229-0.29 0.253-0.474l0.757-5.867c0.014-0.108 0.005-0.217-0.026-0.321s-0.085-0.2-0.156-0.281-0.16-0.147-0.258-0.192c-0.099-0.045-0.206-0.068-0.314-0.068h-5.048v-2.985c0-1.478 0.297-2.095 2.146-2.095h3.107c0.202 0 0.396-0.080 0.539-0.223s0.223-0.337 0.223-0.539v-5.25c0-0.185-0.067-0.364-0.189-0.503s-0.29-0.229-0.474-0.253zM17.143 5.48l-2.347 0.002c-3.287 0-3.668 2.066-3.668 3.619v3.749c0 0.202 0.080 0.395 0.223 0.538s0.336 0.223 0.538 0.224h4.946l-0.562 4.343h-4.383c-0.202 0-0.396 0.080-0.539 0.223s-0.223 0.337-0.223 0.539v11.761h-4.538v-11.761c0-0.202-0.080-0.396-0.223-0.539s-0.337-0.223-0.539-0.223h-4.303v-4.343h4.303c0.202 0 0.396-0.080 0.539-0.223s0.223-0.337 0.223-0.539v-4.331c0-4.379 2.537-6.994 6.786-6.994 1.537 0 2.926 0.084 3.767 0.157v3.799z"></path>
</symbol>
<symbol id="icon-instagram" viewBox="0 0 32 32">
<path d="M15.68 8.32c-1.456 0-2.879 0.432-4.089 1.24s-2.154 1.958-2.711 3.303c-0.557 1.345-0.703 2.825-0.419 4.252s0.985 2.739 2.014 3.768c1.029 1.029 2.341 1.73 3.768 2.014s2.908 0.138 4.252-0.419c1.345-0.557 2.494-1.5 3.303-2.711s1.24-2.633 1.24-4.089c0-1.952-0.775-3.824-2.156-5.204s-3.252-2.156-5.204-2.156zM15.68 21.12c-1.076 0-2.128-0.319-3.022-0.917s-1.592-1.447-2.004-2.441-0.519-2.088-0.31-3.143c0.21-1.055 0.728-2.025 1.489-2.785s1.73-1.279 2.785-1.489c1.055-0.21 2.149-0.102 3.143 0.31s1.844 1.109 2.441 2.004c0.598 0.895 0.917 1.946 0.917 3.022-0.004 1.442-0.579 2.823-1.598 3.842s-2.401 1.594-3.842 1.598zM22.72 0h-14.080c-2.291 0-4.489 0.91-6.109 2.531s-2.531 3.818-2.531 6.109v14.080c0 2.291 0.91 4.489 2.531 6.109s3.818 2.531 6.109 2.531h14.080c2.291 0 4.489-0.91 6.109-2.531s2.531-3.818 2.531-6.109v-14.080c0-2.291-0.91-4.489-2.531-6.109s-3.818-2.531-6.109-2.531zM29.44 22.72c0 1.782-0.708 3.491-1.968 4.752s-2.969 1.968-4.752 1.968h-14.080c-1.782 0-3.492-0.708-4.752-1.968s-1.968-2.969-1.968-4.752v-14.080c0-1.782 0.708-3.492 1.968-4.752s2.97-1.968 4.752-1.968h14.080c1.782 0 3.491 0.708 4.752 1.968s1.968 2.97 1.968 4.752v14.080zM25.6 7.36c0 0.316-0.094 0.626-0.27 0.889s-0.426 0.468-0.718 0.589c-0.292 0.121-0.614 0.153-0.925 0.091s-0.595-0.214-0.819-0.438-0.376-0.509-0.438-0.819c-0.062-0.31-0.030-0.632 0.091-0.924s0.326-0.542 0.589-0.718c0.263-0.176 0.573-0.27 0.889-0.27 0.424 0 0.831 0.169 1.131 0.469s0.469 0.707 0.469 1.131z"></path>
</symbol>
<symbol id="icon-telephone" viewBox="0 0 32 32">
<path d="M27.655 22.957l-0.173-0.216c-1.372-1.735-2.519-2.637-3.503-2.756-0.851-0.116-1.673 0.472-2.548 1.077l-0.935 0.584c-0.112 0.056-0.223 0.101-0.327 0.132-0.547 0.155-1.927 0.245-2.708-0.469-0.909-0.832-2.32-2.355-3.417-3.685-1.048-1.377-2.2-3.095-2.801-4.176-0.508-0.916-0.083-2.197 0.201-2.672 0.056-0.093 0.129-0.185 0.211-0.276l0.824-0.761c0.012-0.012 0.017-0.027 0.028-0.037 0.008-0.008 0.021-0.005 0.031-0.012 0.744-0.628 1.513-1.275 1.619-2.105 0.124-0.976-0.483-2.296-1.857-4.029l-0.168-0.216c-0.851-1.091-2.137-2.74-3.985-2.468-0.727 0.108-1.376 0.356-2.045 0.776-0.007 0.004-0.011 0.012-0.016 0.016s-0.012 0.004-0.017 0.008l-0.932 0.691c-0.009 0.005-0.015 0.017-0.024 0.025-0.007 0.007-0.017 0.008-0.025 0.015-0.108 0.091-0.216 0.184-0.323 0.28-0.945 0.843-2.992 3.289-1.596 7.815 0.901 2.923 2.76 6.333 5.388 9.883l-0.025 0.021 1.449 1.805 0.012-0.009c2.849 3.371 5.749 5.976 8.407 7.553 1.773 1.053 3.323 1.401 4.597 1.401 1.677 0 2.879-0.603 3.481-0.995l0.379-0.253c0.043-0.029 0.073-0.071 0.104-0.108l0.825-0.621c0.009-0.008 0.015-0.019 0.024-0.027 0.004-0.004 0.011-0.003 0.016-0.007 0.587-0.536 0.993-1.097 1.276-1.763 0.732-1.705-0.579-3.339-1.445-4.42zM28.12 26.959c-0.22 0.517-0.541 0.957-1.005 1.384l-1.228 0.924c-1.112 0.723-3.489 1.616-6.943-0.435-2.657-1.577-5.583-4.244-8.461-7.712l-0.779-0.984c-2.711-3.595-4.617-7.037-5.517-9.955-1.169-3.793 0.304-5.828 1.291-6.707 0.1-0.091 0.2-0.175 0.299-0.259l0.004-0.004 0.895-0.663c0.544-0.344 1.048-0.536 1.628-0.624 1.239-0.187 2.247 1.12 2.987 2.069l0.173 0.22c1.536 1.937 1.684 2.859 1.636 3.235-0.053 0.417-0.688 0.952-1.248 1.423l-0.079 0.067c-0.003 0.003-0.004 0.007-0.007 0.009-0.004 0.003-0.008 0.004-0.012 0.007l-0.852 0.788c-0.005 0.005-0.008 0.012-0.013 0.019s-0.016 0.009-0.021 0.016c-0.132 0.148-0.245 0.296-0.337 0.449-0.479 0.801-0.931 2.457-0.217 3.739 0.623 1.12 1.808 2.889 2.897 4.319 1.139 1.381 2.591 2.949 3.532 3.809 0.705 0.644 1.687 0.86 2.536 0.86 0.455 0 0.872-0.063 1.188-0.152 0.167-0.048 0.339-0.117 0.516-0.204 0.011-0.005 0.016-0.015 0.027-0.021 0.005-0.003 0.013-0.001 0.019-0.005l0.989-0.619c0.032-0.021 0.053-0.049 0.080-0.076l0.012 0.013c0.609-0.423 1.304-0.919 1.739-0.847 0.385 0.047 1.26 0.417 2.799 2.36l0.177 0.223c0.749 0.935 1.776 2.215 1.297 3.333z"></path>
</symbol>
</defs>
</svg>
