<svg aria-hidden="true" style="position: absolute; width: 0; height: 0; overflow: hidden;" version="1.1" xmlns="http://www.w3.org/2000/svg" xmlns:xlink="http://www.w3.org/1999/xlink">
<defs>
<symbol id="icon-adv1" viewBox="0 0 29 32">
<path d="M14.347 0c-1.145 0-2.215 0.522-3.127 1.376s-1.692 2.044-2.343 3.485c-0.136 0.302-0.267 0.616-0.391 0.939-0.336-0.053-0.673-0.097-1.011-0.131-0.393-0.039-0.777-0.064-1.15-0.072-1.12-0.027-2.143 0.087-3.040 0.359-1.196 0.363-2.182 1.028-2.755 2.020s-0.656 2.179-0.372 3.396c0.284 1.217 0.924 2.488 1.847 3.772 0.194 0.269 0.401 0.54 0.619 0.81-0.214 0.264-0.42 0.533-0.618 0.809-0.923 1.284-1.563 2.555-1.847 3.772s-0.201 2.404 0.372 3.396c0.573 0.992 1.559 1.658 2.755 2.020s2.616 0.444 4.19 0.286c0.33-0.033 0.667-0.077 1.010-0.131 0.122 0.317 0.252 0.631 0.392 0.941 0.651 1.441 1.431 2.631 2.343 3.485s1.982 1.376 3.127 1.376c1.145 0 2.215-0.522 3.127-1.376s1.692-2.044 2.343-3.485c0.139-0.31 0.27-0.624 0.392-0.941 0.342 0.054 0.679 0.098 1.009 0.131 1.574 0.157 2.994 0.076 4.19-0.286s2.182-1.028 2.755-2.020c0.573-0.992 0.656-2.179 0.372-3.396s-0.924-2.488-1.847-3.772c-0.198-0.275-0.404-0.545-0.618-0.809 0.214-0.264 0.42-0.534 0.619-0.809 0.923-1.284 1.563-2.555 1.847-3.772s0.201-2.404-0.372-3.396c-0.573-0.992-1.559-1.658-2.755-2.020-0.897-0.272-1.92-0.385-3.039-0.359-0.373 0.009-0.757 0.033-1.15 0.072-0.33 0.033-0.667 0.077-1.010 0.131-0.122-0.317-0.252-0.63-0.391-0.939-0.651-1.441-1.431-2.631-2.343-3.485s-1.982-1.376-3.127-1.376l0 0zM14.347 1.274c0.764 0 1.513 0.336 2.256 1.032s1.452 1.749 2.053 3.080c0.098 0.217 0.191 0.436 0.279 0.657-1.46 0.325-3.007 0.823-4.588 1.488-1.58-0.665-3.127-1.163-4.587-1.488 0.090-0.226 0.183-0.446 0.279-0.658 0.601-1.331 1.31-2.384 2.053-3.080s1.492-1.031 2.256-1.031l-0 0zM5.921 6.869c0.123-0.001 0.248-0 0.375 0.002 0.338 0.008 0.69 0.029 1.053 0.066 0.232 0.023 0.47 0.053 0.711 0.088-0.449 1.427-0.791 3.015-1.005 4.717-1.367 1.036-2.572 2.127-3.583 3.229-0.148-0.187-0.292-0.378-0.431-0.571-0.852-1.185-1.409-2.326-1.641-3.318s-0.147-1.808 0.235-2.469c0.382-0.662 1.047-1.143 2.021-1.438 0.639-0.194 1.405-0.298 2.266-0.306l0 0zM22.773 6.869c0.861 0.008 1.626 0.112 2.266 0.306 0.974 0.295 1.639 0.776 2.021 1.438s0.466 1.478 0.235 2.469c-0.231 0.991-0.789 2.132-1.641 3.318-0.14 0.194-0.283 0.384-0.431 0.571-1.011-1.102-2.216-2.192-3.582-3.229-0.214-1.702-0.556-3.29-1.005-4.718 0.241-0.035 0.478-0.065 0.71-0.088 0.35-0.035 0.701-0.057 1.053-0.066 0.125-0.003 0.25-0.004 0.375-0.003v0zM19.369 7.254c0.339 1.053 0.619 2.214 0.829 3.457-0.676-0.457-1.369-0.89-2.076-1.298s-1.427-0.791-2.161-1.148c1.181-0.44 2.327-0.778 3.408-1.011v-0zM9.325 7.254c1.081 0.233 2.226 0.57 3.407 1.010-0.734 0.357-1.454 0.74-2.161 1.148s-1.399 0.84-2.075 1.297c0.209-1.242 0.49-2.404 0.829-3.456zM14.347 8.921c1.037 0.457 2.089 0.989 3.138 1.595s2.037 1.252 2.951 1.921c0.122 1.127 0.188 2.304 0.188 3.516s-0.066 2.388-0.188 3.514c-0.915 0.669-1.902 1.315-2.951 1.921s-2.102 1.138-3.139 1.595c-1.037-0.457-2.090-0.989-3.139-1.595s-2.036-1.251-2.95-1.92c-0.122-1.127-0.188-2.304-0.188-3.515s0.066-2.39 0.188-3.517c0.915-0.669 1.901-1.315 2.95-1.921s2.102-1.137 3.138-1.594v-0zM14.433 10.838l-3.648 2.251 3.648 2.251 3.648-2.251-3.648-2.251zM6.881 13.507c-0.057 0.814-0.086 1.63-0.086 2.447 0 0.832 0.029 1.648 0.086 2.445-0.972-0.803-1.837-1.626-2.579-2.446 0.742-0.82 1.607-1.643 2.579-2.446zM21.813 13.507c0.971 0.803 1.836 1.626 2.578 2.446-0.742 0.819-1.607 1.643-2.578 2.445 0.057-0.814 0.086-1.629 0.086-2.445 0-0.832-0.029-1.649-0.086-2.446h0zM9.963 14.080v4.445l3.831 2.364v-4.445l-3.831-2.364zM18.899 14.082l-3.83 2.364v4.443l3.83-2.364v-4.443h-0zM3.471 16.935c1.011 1.103 2.216 2.193 3.583 3.229 0.214 1.702 0.556 3.29 1.005 4.716-0.241 0.035-0.478 0.065-0.709 0.088-1.453 0.145-2.72 0.057-3.694-0.238s-1.639-0.776-2.021-1.438c-0.382-0.662-0.466-1.478-0.235-2.469s0.789-2.132 1.641-3.318c0.139-0.193 0.283-0.384 0.43-0.571zM25.223 16.935c0.15 0.191 0.295 0.381 0.43 0.57 0.852 1.185 1.409 2.326 1.641 3.317s0.147 1.808-0.234 2.469c-0.382 0.662-1.047 1.143-2.021 1.438s-2.241 0.383-3.693 0.238c-0.237-0.024-0.473-0.053-0.709-0.088 0.449-1.427 0.791-3.016 1.005-4.718 1.366-1.036 2.571-2.126 3.582-3.228l-0 0zM20.198 21.195c-0.209 1.243-0.49 2.404-0.829 3.457-1.081-0.233-2.227-0.571-3.408-1.011 0.734-0.357 1.455-0.741 2.161-1.149s1.399-0.841 2.075-1.297h-0zM8.496 21.196c0.676 0.456 1.368 0.889 2.074 1.297s1.428 0.791 2.161 1.149c-1.181 0.44-2.326 0.778-3.407 1.010-0.339-1.052-0.619-2.213-0.828-3.456zM14.385 21.254l0.046 0.029 0.046-0.029h-0.093zM14.347 24.374c1.581 0.665 3.128 1.163 4.588 1.488-0.088 0.222-0.181 0.442-0.279 0.659-0.601 1.33-1.31 2.384-2.053 3.080s-1.492 1.032-2.256 1.032c-0.764 0-1.513-0.336-2.256-1.032s-1.452-1.749-2.053-3.080c-0.098-0.218-0.191-0.438-0.279-0.659 1.46-0.325 3.007-0.823 4.587-1.488h-0z"></path>
</symbol>
<symbol id="icon-adv3" viewBox="0 0 32 32">
<path d="M29.687 10.326c-0.253-0.229-0.559-0.376-0.883-0.425s-0.655 0.003-0.954 0.15l-6.312 3.080c-0.028 0.017-0.058 0.027-0.090 0.031s-0.063 0-0.094-0.010c-0.030-0.010-0.058-0.027-0.083-0.049s-0.044-0.050-0.059-0.081l-3.688-7.287c-0.15-0.301-0.37-0.553-0.638-0.728s-0.575-0.268-0.887-0.268c-0.312 0-0.618 0.092-0.887 0.268s-0.489 0.427-0.638 0.728l-3.687 7.287c-0.014 0.031-0.034 0.059-0.059 0.081s-0.052 0.039-0.083 0.049c-0.030 0.010-0.062 0.014-0.094 0.010s-0.062-0.014-0.090-0.031l-6.313-3.080c-0.298-0.149-0.628-0.202-0.953-0.155s-0.631 0.194-0.883 0.423-0.442 0.532-0.546 0.873c-0.104 0.342-0.119 0.708-0.043 1.059l3.188 14.891c0.054 0.252 0.154 0.489 0.293 0.697s0.316 0.383 0.519 0.513c0.267 0.18 0.574 0.275 0.888 0.275 0.16-0.002 0.32-0.025 0.475-0.069 5.827-1.773 11.983-1.778 17.812-0.014 0.227 0.072 0.466 0.093 0.701 0.061s0.461-0.116 0.666-0.247 0.383-0.306 0.524-0.516c0.141-0.209 0.242-0.447 0.297-0.701l3.175-14.891c0.079-0.348 0.067-0.713-0.034-1.054s-0.289-0.643-0.541-0.871zM28.812 11.866l-3.188 14.891c-0.017 0.072-0.057 0.136-0.112 0.179-0.062 0.033-0.132 0.043-0.2 0.028-6.094-1.852-12.531-1.852-18.625 0-0.033 0.010-0.067 0.013-0.101 0.008s-0.066-0.017-0.096-0.037c-0.029-0.019-0.055-0.045-0.075-0.076s-0.034-0.065-0.041-0.102l-3.188-14.891c-0.007-0.041-0.006-0.083 0.003-0.124s0.026-0.079 0.050-0.111c0.024-0.033 0.054-0.059 0.088-0.078s0.071-0.029 0.109-0.030l0.1 0.028 6.325 3.094c0.399 0.198 0.851 0.222 1.266 0.069s0.762-0.472 0.972-0.894l3.688-7.287c0.020-0.043 0.050-0.080 0.088-0.106s0.081-0.039 0.125-0.039c0.044 0 0.087 0.014 0.125 0.039s0.068 0.062 0.088 0.106l3.687 7.287c0.21 0.422 0.557 0.742 0.972 0.894s0.867 0.128 1.266-0.069l6.325-3.094c0.043-0.021 0.090-0.028 0.137-0.021s0.090 0.029 0.126 0.062c0.037 0.032 0.064 0.075 0.080 0.124s0.018 0.101 0.008 0.151zM20.75 22.316c-0.021 0.203-0.109 0.391-0.247 0.527s-0.317 0.213-0.503 0.215h-0.075c-2.61-0.289-5.24-0.289-7.85 0-0.197 0.023-0.395-0.041-0.549-0.177s-0.254-0.335-0.276-0.552c-0.018-0.218 0.043-0.435 0.169-0.605s0.308-0.278 0.506-0.302c2.709-0.316 5.441-0.316 8.15 0 0.196 0.024 0.375 0.131 0.501 0.297s0.188 0.38 0.174 0.596z"></path>
</symbol>
<symbol id="icon-adv2" viewBox="0 0 40 32">
<path d="M12.337 10.242h-12.51c-0.384 0-0.695 0.298-0.695 0.667v4.001c0 0.369 0.311 0.667 0.695 0.667h0.695v15.337c0 0.369 0.311 0.667 0.695 0.667h9.73c0.384 0 0.695-0.298 0.695-0.667v-15.337h0.695c0.384 0 0.695-0.298 0.695-0.667v-4.001c0-0.369-0.311-0.667-0.695-0.667zM4.692 22.912v-1.334h4.17v-1.334h-4.17v-1.334h5.56v8.669h-5.56v-3.334h1.39v-1.334h-1.39zM10.252 17.578h-6.255c-0.384 0-0.695 0.298-0.695 0.667v10.002c0 0.369 0.311 0.667 0.695 0.667h6.255v1.334h-8.34v-14.67h8.34v2zM11.642 14.243h-11.12v-2.667h11.12v2.667z"></path>
<path d="M21.546 10.367v-4.875c0-0.38-0.311-0.687-0.695-0.687h-0.695v-3.433h1.39v-1.373h-7.645v1.373h4.865v3.433h-0.695c-0.384 0-0.695 0.307-0.695 0.687v4.875c-1.584 0.319-2.78 1.705-2.78 3.363v17.163c0 0.38 0.311 0.687 0.695 0.687h8.34c0.384 0 0.695-0.307 0.695-0.687v-17.163c0-1.657-1.196-3.044-2.78-3.363zM18.766 6.179h1.39v4.119h-1.39v-4.119zM18.071 11.671h2.78c1.15 0 2.085 0.924 2.085 2.060v0.687h-6.95v-0.687c0-1.136 0.936-2.060 2.085-2.060zM22.936 27.462h-6.95v-1.373h2.78v-1.373h-2.78v-8.925h6.95v11.671zM15.986 30.208v-1.373h6.95v1.373h-6.95z"></path>
<path d="M39.313 9.389h-11.729c-0.36 0-0.652 0.301-0.652 0.672v20.847c0 0.372 0.291 0.672 0.652 0.672h11.729c0.36 0 0.652-0.301 0.652-0.672v-20.847c0-0.372-0.291-0.672-0.652-0.672zM38.661 30.236h-10.425v-19.502h10.425v19.502z"></path>
<path d="M9.557 23.045h-1.738v0.854h1.738v-0.854z"></path>
<path d="M21.72 24.753h-1.738v1.707h1.738v-1.707z"></path>
<path d="M19.548 23.046c1.677 0 3.041-1.34 3.041-2.987s-1.364-2.987-3.041-2.987c-1.677 0-3.041 1.34-3.041 2.987s1.364 2.987 3.041 2.987zM19.548 18.564c0.838 0 1.52 0.67 1.52 1.494s-0.682 1.494-1.52 1.494c-0.838 0-1.52-0.67-1.52-1.494s0.682-1.494 1.52-1.494z"></path>
<path d="M31.819 16.217h3.258c1.258 0 2.281-0.957 2.281-2.134s-1.023-2.134-2.281-2.134h-3.258c-1.258 0-2.28 0.957-2.28 2.134s1.023 2.134 2.28 2.134zM36.054 14.083c0 0.504-0.438 0.915-0.977 0.915h-0.977v-1.829h0.977c0.539 0 0.977 0.41 0.977 0.915zM31.819 13.169h0.977v1.829h-0.977c-0.539 0-0.977-0.41-0.977-0.915s0.439-0.915 0.977-0.915z"></path>
<path d="M31.819 23.045h3.258c1.258 0 2.281-1.149 2.281-2.561s-1.023-2.561-2.281-2.561h-3.258c-1.258 0-2.28 1.149-2.28 2.561s1.023 2.561 2.28 2.561zM36.054 20.485c0 0.605-0.438 1.097-0.977 1.097h-0.977v-2.195h0.977c0.539 0 0.977 0.492 0.977 1.097zM31.819 19.387h0.977v2.195h-0.977c-0.539 0-0.977-0.492-0.977-1.097s0.439-1.097 0.977-1.097z"></path>
<path d="M31.819 29.020h3.258c1.258 0 2.281-1.149 2.281-2.561s-1.023-2.561-2.281-2.561h-3.258c-1.258 0-2.28 1.149-2.28 2.561s1.023 2.561 2.28 2.561zM36.054 26.46c0 0.605-0.438 1.097-0.977 1.097h-0.977v-2.195h0.977c0.539 0 0.977 0.492 0.977 1.097zM31.819 25.362h0.977v2.195h-0.977c-0.539 0-0.977-0.492-0.977-1.097s0.439-1.097 0.977-1.097z"></path>
</symbol>
</defs>
</svg>
